<svg id="Badge_App_Store_45px" data-name="Badge/App Store/45px" xmlns="http://www.w3.org/2000/svg" width="135" height="45" viewBox="0 0 135 45">
  <rect id="Background" width="135" height="45" rx="5"/>
  <path id="App_Store" data-name="App Store" d="M56.947,29h-2.1V15.053h2.037V16.8h.039a3.634,3.634,0,0,1,3.147-1.855l.118,0A3.9,3.9,0,0,1,63.316,16.4,6.112,6.112,0,0,1,64.5,20.294a6.144,6.144,0,0,1-1.174,3.9,3.848,3.848,0,0,1-3.1,1.453c-.061,0-.122,0-.182,0A3.464,3.464,0,0,1,57,23.809h-.049V29Zm2.68-12.222c-1.608,0-2.689,1.413-2.689,3.516s1.081,3.525,2.689,3.525c1.646,0,2.71-1.384,2.71-3.525A4.149,4.149,0,0,0,61.6,17.74,2.4,2.4,0,0,0,59.627,16.778ZM45.662,29H43.557V15.053h2.038V16.8h.039a3.634,3.634,0,0,1,3.147-1.855l.118,0A3.9,3.9,0,0,1,52.032,16.4a6.112,6.112,0,0,1,1.183,3.893,6.143,6.143,0,0,1-1.174,3.9,3.848,3.848,0,0,1-3.1,1.453c-.061,0-.122,0-.182,0a3.464,3.464,0,0,1-3.043-1.838h-.049V29Zm2.68-12.222c-1.609,0-2.689,1.413-2.689,3.516s1.081,3.525,2.689,3.525c1.646,0,2.71-1.384,2.71-3.525a4.149,4.149,0,0,0-.741-2.554A2.4,2.4,0,0,0,48.343,16.778ZM7.147,27.55c-1.811,0-3.224-2.014-4.256-3.485A17.531,17.531,0,0,1,.227,17.426a10.863,10.863,0,0,1,.938-7.248A6.744,6.744,0,0,1,6.839,6.727h.079A7.616,7.616,0,0,1,9.7,7.442a5.212,5.212,0,0,0,1.722.5,5.348,5.348,0,0,0,1.654-.488,8.894,8.894,0,0,1,3.184-.806,4.268,4.268,0,0,1,.443.023A6.46,6.46,0,0,1,21.761,9.4a6.227,6.227,0,0,0-2.99,5.253,6.04,6.04,0,0,0,3.7,5.566,13.814,13.814,0,0,1-1.926,3.912c-1.227,1.83-2.391,3.347-4.212,3.377h-.1A4.8,4.8,0,0,1,14.2,27a5.607,5.607,0,0,0-2.419-.571,5.946,5.946,0,0,0-2.548.591,5.344,5.344,0,0,1-1.992.527Zm68.016-1.777a6.062,6.062,0,0,1-3.8-1.147,4.1,4.1,0,0,1-1.562-3.1h2.155c.154,1.413,1.5,2.362,3.362,2.362,1.767,0,3.05-.934,3.05-2.221,0-1.115-.775-1.785-2.592-2.242l-1.823-.448c-2.579-.637-3.781-1.869-3.781-3.875,0-2.463,2.1-4.183,5.117-4.183a5.6,5.6,0,0,1,3.627,1.162,3.952,3.952,0,0,1,1.45,3.021H78.243c-.126-1.419-1.268-2.3-2.983-2.3a3.4,3.4,0,0,0-2.063.6,1.89,1.89,0,0,0-.792,1.554c0,1.013.74,1.613,2.553,2.072l1.549.389c2.863.692,4.084,1.884,4.084,3.984a3.951,3.951,0,0,1-1.464,3.195A6.256,6.256,0,0,1,75.163,25.772Zm35.042-.109c-2.982,0-4.834-2.038-4.834-5.32s1.862-5.419,4.745-5.419a4.373,4.373,0,0,1,3.374,1.393,5.555,5.555,0,0,1,1.246,3.777v.736H107.5v.131a2.769,2.769,0,0,0,.724,2.12,2.657,2.657,0,0,0,1.937.85l.1,0c.072.007.145.01.218.01a2.31,2.31,0,0,0,2.15-1.485h2C114.339,24.345,112.523,25.663,110.206,25.663Zm-.106-9a2.55,2.55,0,0,0-1.831.774,2.7,2.7,0,0,0-.763,1.885h5.126a2.561,2.561,0,0,0-.689-1.892,2.45,2.45,0,0,0-1.772-.768h-.07Zm-17.025,9a4.634,4.634,0,0,1-3.549-1.445,5.72,5.72,0,0,1-1.314-3.925,5.709,5.709,0,0,1,1.32-3.921,5.062,5.062,0,0,1,7.089,0,5.714,5.714,0,0,1,1.317,3.921,5.72,5.72,0,0,1-1.313,3.925A4.635,4.635,0,0,1,93.075,25.663Zm0-8.967c-1.7,0-2.718,1.345-2.718,3.6a4.379,4.379,0,0,0,.72,2.649,2.584,2.584,0,0,0,4,0,4.377,4.377,0,0,0,.72-2.649C95.8,18.042,94.778,16.7,93.075,16.7Zm-7.066,8.9h-.1c-2.076,0-2.885-.793-2.885-2.83V16.757h-1.49v-1.7h1.49V12.574h2.115v2.479h1.949v1.7H85.135v5.777c0,.9.4,1.316,1.247,1.316a6.383,6.383,0,0,0,.692-.049v1.693A5.668,5.668,0,0,1,86.01,25.594Zm-54-.061h-2.27l5.077-14.374h2.359L42.25,25.532H39.941l-1.286-3.885H33.3l-1.288,3.885ZM35.946,13.55l-2.1,6.305H38.1L36,13.55Zm65.833,11.983H99.674V15.053h2.007v1.784h.05a2.452,2.452,0,0,1,2.372-1.9l.094,0h.012a3.143,3.143,0,0,1,.709.081v2.012a2.877,2.877,0,0,0-.858-.131h-.088l-.087,0a2.1,2.1,0,0,0-1.552.691,2.2,2.2,0,0,0-.553,1.722v6.214ZM107.4,7.36a2.048,2.048,0,0,1-.224-.012h-.06a2.3,2.3,0,0,1-1.727-.789,2.393,2.393,0,0,1-.568-1.9,2.44,2.44,0,0,1,.567-1.911,2.333,2.333,0,0,1,1.763-.813h.021c1.425,0,2.275.982,2.275,2.627V4.92h-3.6v.058a1.4,1.4,0,0,0,.355,1.054,1.337,1.337,0,0,0,.987.439h.016a1.2,1.2,0,0,0,.146.009,1.22,1.22,0,0,0,1.067-.641h.968A2.088,2.088,0,0,1,107.4,7.36Zm-.25-4.55a1.279,1.279,0,0,0-.922.391,1.355,1.355,0,0,0-.382.959h2.575a1.275,1.275,0,0,0-.335-.959,1.22,1.22,0,0,0-.892-.391h-.045ZM82.878,7.348A2.374,2.374,0,0,1,81.6,6.976a2.472,2.472,0,0,1-1.13-2.337A2.473,2.473,0,0,1,81.6,2.3a2.375,2.375,0,0,1,2.548,0,2.474,2.474,0,0,1,1.13,2.334,2.472,2.472,0,0,1-1.13,2.337A2.374,2.374,0,0,1,82.878,7.348Zm0-4.5c-.869,0-1.367.653-1.367,1.791s.5,1.795,1.367,1.795,1.368-.654,1.368-1.795S83.749,2.848,82.879,2.848Zm-20.4,4.5a2.377,2.377,0,0,1-1.275-.372,2.472,2.472,0,0,1-1.13-2.337A2.473,2.473,0,0,1,61.207,2.3a2.37,2.37,0,0,1,2.547,0,2.473,2.473,0,0,1,1.131,2.334,2.473,2.473,0,0,1-1.13,2.337A2.377,2.377,0,0,1,62.481,7.348Zm0-4.5c-.868,0-1.366.653-1.366,1.791s.5,1.795,1.366,1.795,1.368-.654,1.368-1.795S63.351,2.848,62.482,2.848Zm-22.126,4.5a2.377,2.377,0,0,1-1.275-.372,2.473,2.473,0,0,1-1.129-2.337A2.473,2.473,0,0,1,39.082,2.3a2.374,2.374,0,0,1,2.547,0,2.473,2.473,0,0,1,1.131,2.334,2.472,2.472,0,0,1-1.13,2.337A2.377,2.377,0,0,1,40.356,7.348Zm0-4.5c-.869,0-1.367.653-1.367,1.791s.5,1.795,1.367,1.795,1.368-.654,1.368-1.795S41.227,2.848,40.358,2.848ZM67.484,7.341a1.519,1.519,0,0,1-1.028-.4,1.6,1.6,0,0,1-.511-1.166c0-.925.674-1.478,1.9-1.556l1.381-.081v-.45c0-.555-.371-.861-1.044-.861-.564,0-.951.211-1.062.58h-.975c.1-.893.921-1.47,2.083-1.47,1.271,0,2,.638,2,1.751V7.247h-.969V6.514h-.079a1.7,1.7,0,0,1-1.451.82l-.081,0A1.507,1.507,0,0,1,67.484,7.341Zm1.739-2.449-1.245.082c-.7.047-1.021.286-1.021.752s.371.742.945.742a1.176,1.176,0,0,0,.9-.284,1.239,1.239,0,0,0,.424-.856Zm4.508,2.442h-.067A1.893,1.893,0,0,1,72.119,6.6a3.154,3.154,0,0,1-.572-1.966c0-1.634.831-2.69,2.117-2.69l.078,0a1.67,1.67,0,0,1,1.486.916H75.3V0h1.006V7.247h-.964V6.423h-.08A1.766,1.766,0,0,1,73.731,7.334Zm.219-4.462c-.84,0-1.363.677-1.363,1.767,0,1.109.509,1.77,1.363,1.77s1.373-.677,1.373-1.766S74.8,2.872,73.949,2.872Zm23.258,4.4c-1.112,0-1.565-.408-1.565-1.408V2.925h-.809V2.058h.809V.737H96.65V2.058h1.1v.867h-1.1v2.68c0,.543.222.785.721.785a3.421,3.421,0,0,0,.383-.023v.857A3.3,3.3,0,0,1,97.207,7.276Zm2.929-.028H99.13V0h1V2.872h.079a1.572,1.572,0,0,1,1.427-.939c.043,0,.086,0,.128.005l.092,0a1.667,1.667,0,0,1,1.233.552,1.736,1.736,0,0,1,.431,1.394V7.246H102.51V4.135c0-.821-.377-1.255-1.091-1.255-.032,0-.064,0-.1,0a1.171,1.171,0,0,0-.846.359,1.233,1.233,0,0,0-.341.967V7.247Zm-12.5,0H86.633V2.035H87.6v.828h.076a1.524,1.524,0,0,1,1.4-.934c.041,0,.083,0,.124.005s.083,0,.125,0a1.645,1.645,0,0,1,1.214.54,1.71,1.71,0,0,1,.427,1.4V7.246H89.957V4.131c0-.844-.36-1.255-1.1-1.255H88.8a1.163,1.163,0,0,0-.852.376,1.214,1.214,0,0,0-.311.947V7.247Zm-34.9,0H51.736V2.035H52.7v.828h.076a1.524,1.524,0,0,1,1.4-.934c.041,0,.083,0,.124.005s.083,0,.125,0a1.645,1.645,0,0,1,1.214.54,1.71,1.71,0,0,1,.427,1.4V7.246H55.06V4.131c0-.844-.36-1.255-1.1-1.255h-.054a1.163,1.163,0,0,0-.852.376,1.214,1.214,0,0,0-.311.947V7.247Zm-6.816,0H44.893L43.487,2.035h1.021l.913,3.977H45.5l1.048-3.977h.966l1.048,3.977h.08l.909-3.977h1.006l-1.4,5.211H48.11L47.056,3.408h-.08L45.927,7.247Zm12.75,0H57.67V0h1.006V7.246Zm-25.09,0H31.145V.34h2.441c.071-.005.144-.008.215-.008a2.972,2.972,0,0,1,2.17.955,3.089,3.089,0,0,1,.795,2.485C36.766,5.98,35.607,7.247,33.586,7.247ZM32.2,1.317V6.27h1.273c.042,0,.084,0,.126,0a2.113,2.113,0,0,0,1.567-.7A2.193,2.193,0,0,0,35.7,3.786a2.2,2.2,0,0,0-.544-1.772,2.114,2.114,0,0,0-1.566-.7c-.039,0-.079,0-.118,0ZM11.254,6.352H11.2A5.813,5.813,0,0,1,12.651,2.1,6.275,6.275,0,0,1,16.72,0a6.12,6.12,0,0,1-1.414,4.416A5.183,5.183,0,0,1,11.254,6.352Z" transform="translate(9.262 8)" fill="#f5f9fc"/>
</svg>
