<svg xmlns="http://www.w3.org/2000/svg" width="151" height="45" viewBox="0 0 151 45">
  <g id="Group_2452" data-name="Group 2452" transform="translate(-67 -64)">
    <g id="Badge_Google_Play_Market_45px" data-name="Badge/Google Play Market/45px" transform="translate(67 64)">
      <rect id="Background" width="151" height="45" rx="5"/>
      <path id="Path_1720" data-name="Path 1720" d="M51.665,19.525,48.952,29.594,46.33,19.525H44.272l3.387,12.309h2.422l2.713-9.614,2.713,9.614h2.44l3.369-12.309H59.258l-2.6,10.069L53.923,19.525ZM64.893,30.45A1.959,1.959,0,0,1,62.8,28.265h5.189a6.447,6.447,0,0,0,.127-1.366,3.248,3.248,0,0,0-3.4-3.551c-2.531,0-3.769,1.948-3.769,4.334,0,2.531,1.165,4.352,3.951,4.352a4.264,4.264,0,0,0,3.041-1.2l-.874-1.2A3.329,3.329,0,0,1,64.893,30.45ZM62.8,26.918c.073-1.165.6-2.076,1.912-2.076A1.617,1.617,0,0,1,66.4,26.608a1.986,1.986,0,0,1-.018.31Zm8.4-7.648H69.377V31.834h.947l.546-.747a3.352,3.352,0,0,0,2.531.947c2.349,0,3.551-1.748,3.551-4.37,0-2.677-1.129-4.315-3.551-4.315a2.717,2.717,0,0,0-2.2.874Zm3.878,8.394c0,1.53-.437,2.677-2.094,2.677a2.225,2.225,0,0,1-1.784-.874V25.825a2.17,2.17,0,0,1,1.784-.783C74.6,25.042,75.076,26.135,75.076,27.664ZM83.25,19.27H81.429V31.834h.947l.546-.747a3.352,3.352,0,0,0,2.531.947c2.349,0,3.551-1.748,3.551-4.37,0-2.677-1.129-4.315-3.551-4.315a2.717,2.717,0,0,0-2.2.874Zm3.878,8.394c0,1.53-.437,2.677-2.094,2.677a2.225,2.225,0,0,1-1.784-.874V25.825a2.17,2.17,0,0,1,1.784-.783C86.655,25.042,87.128,26.135,87.128,27.664Zm4.92-2.786V23.531H90.3v8.3h1.821V26.517a1.967,1.967,0,0,1,1.8-1.275,4.718,4.718,0,0,1,1.238.164l.164-1.948a4.17,4.17,0,0,0-.983-.109,2.5,2.5,0,0,0-2.276,1.53Zm7.346-1.53c-2.677,0-3.86,1.839-3.86,4.352,0,2.476,1.22,4.334,3.787,4.334,2.713,0,3.878-1.839,3.878-4.37C103.2,25.188,102.016,23.349,99.394,23.349Zm-.036,7.028c-1.347,0-1.948-.983-1.948-2.713,0-1.675.583-2.658,1.948-2.658,1.384,0,1.985.983,1.985,2.695C101.343,29.358,100.742,30.377,99.358,30.377Zm9.921-6.846-1.948,6.337-1.894-6.337h-1.912l2.641,8.3h2.021l1.967-5.972,1.985,5.972h2.021l2.622-8.3h-1.912l-1.875,6.337-1.948-6.337Zm14.265,1.02a3.9,3.9,0,0,0-3.041-1.2c-2.385,0-3.259,1.4-3.259,2.6a2.376,2.376,0,0,0,2.112,2.331l1.438.364c.674.164,1.056.455,1.056.947,0,.692-.637,1.038-1.548,1.038a2.794,2.794,0,0,1-2.258-1.111l-1.074,1.111a4,4,0,0,0,3.278,1.4c2.495,0,3.46-1.238,3.46-2.586,0-1.2-.747-2.021-2.331-2.385l-1.4-.328c-.656-.146-.892-.492-.892-.947,0-.564.4-1.038,1.366-1.038a2.682,2.682,0,0,1,2.039.892Zm4.9,5.9a1.959,1.959,0,0,1-2.094-2.185h5.189a6.447,6.447,0,0,0,.127-1.366,3.248,3.248,0,0,0-3.4-3.551c-2.531,0-3.769,1.948-3.769,4.334,0,2.531,1.165,4.352,3.951,4.352a4.264,4.264,0,0,0,3.041-1.2l-.874-1.2A3.329,3.329,0,0,1,128.446,30.45Zm-2.094-3.532c.073-1.165.6-2.076,1.912-2.076a1.617,1.617,0,0,1,1.693,1.766,1.984,1.984,0,0,1-.018.31Zm8.327-2.039V23.531H132.93v8.3h1.821V26.517a1.967,1.967,0,0,1,1.8-1.275,4.718,4.718,0,0,1,1.238.164l.164-1.948a4.17,4.17,0,0,0-.983-.109,2.5,2.5,0,0,0-2.276,1.53Z" transform="translate(1.981 3.299)" fill="#fff"/>
      <path id="Path_1721" data-name="Path 1721" d="M46.1,14.535c1.359,0,2.342-.665,2.342-2.5V7.922h-.607v4.145c0,1.407-.656,1.918-1.735,1.918-1.1,0-1.735-.521-1.735-1.918V7.922h-.607v4.116C43.756,13.87,44.72,14.535,46.1,14.535ZM54.445,8.78a2.17,2.17,0,0,0-1.967-.954,1.842,1.842,0,0,0-2.044,1.851c0,.877.578,1.369,1.475,1.639l.9.26c.636.183,1.118.472,1.118,1.128,0,.762-.5,1.282-1.533,1.282a1.544,1.544,0,0,1-1.687-.993l-.5.289a2.064,2.064,0,0,0,2.188,1.253c1.4,0,2.159-.79,2.159-1.86,0-.964-.675-1.4-1.552-1.658l-.887-.26c-.684-.2-1.051-.472-1.051-1.1a1.255,1.255,0,0,1,1.417-1.282,1.612,1.612,0,0,1,1.485.733Zm2.6,5.128V11.345h2.844v-.53H57.043V8.453H60.2v-.53H56.436v6.517h3.808v-.53Zm7.788.53h.607V7.922h-.607Zm7.093-.974L68.347,7.922h-.656v6.517H68.3V8.886l3.576,5.553h.656V7.922h-.6Zm7.453.974V11.807l2.246-3.885h-.694l-1.86,3.3-1.86-3.3h-.684l2.246,3.885v2.632Zm3.853-3.249c0-1.658.482-2.815,1.967-2.815,1.513,0,1.976,1.157,1.976,2.815s-.453,2.8-2,2.8C83.692,13.986,83.229,12.858,83.229,11.19Zm4.56,0c0-1.957-.723-3.364-2.593-3.364S82.6,9.233,82.6,11.19s.713,3.345,2.574,3.345C87.056,14.535,87.789,13.147,87.789,11.19Zm4.259,3.345c1.359,0,2.342-.665,2.342-2.5V7.922h-.607v4.145c0,1.407-.656,1.918-1.735,1.918-1.1,0-1.735-.521-1.735-1.918V7.922h-.607v4.116C89.705,13.87,90.669,14.535,92.048,14.535Zm4.549-.1h.6l.01-2.969h1.311l1.9,2.969h.713L99.17,11.422a1.7,1.7,0,0,0,1.764-1.735c0-1.1-.7-1.764-2.188-1.764H96.6Zm3.711-4.752c0,.781-.424,1.253-1.591,1.253H97.2V8.453h1.513C99.883,8.453,100.308,8.915,100.308,9.686Z" transform="translate(1.945 2.485)" fill="#fff"/>
    </g>
    <g id="Group_2451" data-name="Group 2451" transform="translate(-126.6 28)">
      <rect id="Rectangle_2285" data-name="Rectangle 2285" width="23" height="23" transform="translate(207 47)" fill="#c4c4c4"/>
      <path id="Path_1722" data-name="Path 1722" d="M0,0H23V21H0Z" transform="translate(207 48)" fill="#fff" stroke="#fff" stroke-width="2"/>
      <line id="Line_4" data-name="Line 4" x2="25" transform="translate(206 52)" fill="none" stroke="#000" stroke-width="2"/>
      <circle id="Ellipse_16" data-name="Ellipse 16" cx="1" cy="1" r="1" transform="translate(207 48)"/>
      <circle id="Ellipse_17" data-name="Ellipse 17" cx="1" cy="1" r="1" transform="translate(210 48)"/>
      <circle id="Ellipse_18" data-name="Ellipse 18" cx="1" cy="1" r="1" transform="translate(213 48)"/>
    </g>
  </g>
</svg>
