<svg xmlns="http://www.w3.org/2000/svg" fill="none" height="40" width="135"><g transform="translate(-2 -1)" filter="url(#filter0_d)"><path fill="#fff" d="M132.197 41H6.729A4.74 4.74 0 012 36.267V5.726A4.733 4.733 0 016.729 1h125.468C134.803 1 137 3.12 137 5.726v30.541c0 2.605-2.197 4.733-4.803 4.733z"/><path stroke-opacity=".1" stroke="#000" d="M132.197 40.5H6.73a4.24 4.24 0 01-4.23-4.233V5.727A4.233 4.233 0 016.73 1.5h125.467c2.34 0 4.303 1.907 4.303 4.226v30.541c0 2.32-1.964 4.233-4.303 4.233z"/></g><path fill="url(#paint0_linear)" d="M10.4 7.5c-.3.3-.4.8-.4 1.4V31c0 .6.2 1.1.5 1.4l.1.1L23 20.1v-.2z"/><path fill="url(#paint1_linear)" d="M27 24.3l-4.1-4.1v-.3l4.1-4.1.1.1 4.9 2.8c1.4.8 1.4 2.1 0 2.9z"/><path fill="url(#paint2_linear)" d="M27.1 24.2L22.9 20 10.4 32.5c.5.5 1.2.5 2.1.1z"/><path fill="url(#paint3_linear)" d="M27.1 15.8L12.5 7.5c-.9-.5-1.6-.4-2.1.1L22.9 20z"/><path fill="#000" d="M27 24.1l-14.5 8.2c-.8.5-1.5.4-2 0l-.1.1.1.1c.5.4 1.2.5 2 0z" opacity=".2"/><path fill="#000" d="M27 24.1l5-2.8c.6-.4 1-.8 1-1.3 0 .5-.3 1-1 1.4l-4.9 2.8zm-16.982 7.207c.04.418.153.764.382.993h.01c.029.035.059.069.09.1v-.1h-.09c-.2-.245-.344-.589-.392-.993zm0 0A4.276 4.276 0 0110 30.9v.1c0 .106.006.208.018.307z" clip-rule="evenodd" fill-rule="evenodd" opacity=".12"/><path fill="#fff" d="M12.5 7.6L32 18.7c.6.4 1 .8 1 1.3 0-.5-.3-1-1-1.4L12.5 7.5c-1.4-.8-2.5-.2-2.5 1.4V9c0-1.5 1.1-2.2 2.5-1.4z" opacity=".25"/><path fill="#111" d="M47.7 23.1v1.8H52c-.1 1-.5 1.8-1 2.3-.6.6-1.6 1.3-3.3 1.3-2.7 0-4.7-2.1-4.7-4.8 0-2.7 2.1-4.8 4.7-4.8 1.4 0 2.5.6 3.3 1.3l1.3-1.3c-1.1-1-2.5-1.8-4.5-1.8-3.6 0-6.7 3-6.7 6.6 0 3.6 3.1 6.6 6.7 6.6 2 0 3.4-.6 4.6-1.9 1.2-1.2 1.6-2.9 1.6-4.2 0-.4 0-.8-.1-1.1zm11.1-1.3c-2.4 0-4.3 1.8-4.3 4.3 0 2.4 1.9 4.3 4.3 4.3s4.3-1.8 4.3-4.3c0-2.6-1.9-4.3-4.3-4.3zm5 4.3c0-2.5 1.9-4.3 4.3-4.3s4.3 1.7 4.3 4.3c0 2.5-1.9 4.3-4.3 4.3s-4.3-1.9-4.3-4.3zm1.9-.1c0 1.5 1.1 2.6 2.4 2.6 1.3 0 2.4-1.1 2.4-2.6 0-1.6-1.1-2.6-2.4-2.6-1.3 0-2.4 1.1-2.4 2.6zm-9.3 0c0 1.5 1.1 2.6 2.4 2.6 1.3 0 2.4-1.1 2.4-2.6 0-1.6-1.1-2.6-2.4-2.6-1.3 0-2.4 1.1-2.4 2.6zm33.1-4.2c2.2 0 3.2 1.7 3.6 2.7l.2.5-5.7 2.4c.5.9 1.1 1.3 2.1 1.3s1.6-.5 2.1-1.2l1.4 1c-.4.7-1.6 1.9-3.5 1.9-2.4 0-4.2-1.9-4.2-4.3 0-2.6 1.8-4.3 4-4.3zm-2.2 4.1c0-1.6 1.3-2.5 2.2-2.5.7 0 1.4.4 1.6.9zM84.5 30h-1.9V17.5h1.9zm-4.9-7.3c-.5-.5-1.3-1-2.3-1-2.1 0-4.1 1.9-4.1 4.3s1.9 4.2 4.1 4.2c1 0 1.8-.5 2.2-1h.1v.6c0 1.6-.9 2.5-2.3 2.5-1.1 0-1.9-.8-2.1-1.5l-1.6.7c.5 1.1 1.7 2.5 3.8 2.5 2.2 0 4-1.3 4-4.4V22h-1.8zM75 26c0 1.5 1.1 2.6 2.4 2.6 1.3 0 2.3-1.1 2.3-2.6s-1-2.6-2.3-2.6c-1.3 0-2.4 1.1-2.4 2.6zm26.8-8.5h-4.5V30h1.9v-4.7h2.6c2.1 0 4.1-1.5 4.1-3.9s-2-3.9-4.1-3.9zm-2.6 6h2.7c1.3 0 2.1-1.1 2.2-2.2 0-.9-.8-2.1-2.2-2.1h-2.7zm14.2-1.8c-1.4 0-2.8.6-3.3 1.9l1.7.7c.4-.7 1-.9 1.7-.9 1 0 1.9.6 2 1.6v.1c-.3-.2-1.1-.5-1.9-.5-1.8 0-3.6 1-3.6 2.8 0 1.7 1.5 2.8 3.1 2.8 1.3 0 1.9-.6 2.4-1.2h.1v1h1.8v-4.8c-.2-2.2-1.9-3.5-4-3.5zm-1.7 5.8c0 .8.9 1.1 1.5 1.1 1 0 2-.8 2.2-2l-.149-.06c-.436-.178-.832-.34-1.551-.34-.9 0-2 .3-2 1.3zm12-5.5l-2.1 5.4h-.1l-2.2-5.4h-2l3.3 7.6-1.9 4.2h1.9l5.1-11.8zm-14.9 8h-1.9V17.5h1.9zM41.9 12.7c.3.3.7.4 1.1.4.6 0 1-.1 1.4-.5.3-.3.5-.8.5-1.5V7h-.8v4.1c0 .4-.1.7-.3.9-.2.2-.4.3-.8.3-.6 0-.9-.3-1.1-.9l-.7.3c.2.4.4.8.7 1zm5.1-5h2.7V7h-3.5v6h3.5v-.8H47v-1.9h2.5v-.7H47zm6 5.3h-.8V7.7h-1.7V7h4.1v.7H53zm5.5-5.3l-3.2 4.5v.8h4.1v-.7h-3.2l3.2-4.5V7h-4v.7zm3.9 5.3h-.7V7.7H60V7h4.1v.7h-1.7zm4.8-6v6h2.3c.5 0 .9-.2 1.3-.4.3-.3.5-.7.5-1.2 0-.4-.1-.7-.3-.9-.2-.2-.4-.4-.7-.5.3-.1.5-.3.6-.5.02-.062.041-.12.061-.176.076-.212.139-.387.139-.624 0-.5-.2-.9-.5-1.2-.3-.3-.7-.5-1.2-.5zm.8 2.6h1.4c.3 0 .5-.1.7-.3.2-.2.3-.4.3-.6 0-.2-.1-.5-.3-.7-.2-.2-.4-.3-.7-.3H68zm1.6 2.7H68v-2h1.6c.3 0 .5.1.7.3.2.2.3.5.3.7 0 .3-.1.5-.3.7-.2.2-.4.3-.7.3zm6.3-4.6h-2.7v1.9h2.5v.7h-2.5v1.9h2.7v.8h-3.5V7h3.5zm2-.7h-.8v6h.8z" clip-rule="evenodd" fill-rule="evenodd"/><path fill="#fff" d="M41.9 12.7l.07-.07-.006-.008-.009-.005zm2.5-.1l.07.07zm.5-5.6h.1v-.1h-.1zm-.8 0v-.1H44V7zm-2.2 4.4l.095-.032-.034-.103-.1.043zm-.7.3l-.04-.092-.097.042.047.095zm8.5-4v.1h.1v-.1zm-2.7 0v-.1h-.1v.1zm2.7-.7h.1v-.1h-.1zm-3.5 0v-.1h-.1V7zm0 6h-.1v.1h.1zm3.5 0v.1h.1V13zm0-.8h.1v-.1h-.1zm-2.7 0h-.1v.1h.1zm0-1.9v-.1h-.1v.1zm2.5 0v.1h.1v-.1zm0-.7h.1v-.1h-.1zm-2.5 0h-.1v.1h.1zm5.2 3.4h-.1v.1h.1zm.8 0v.1h.1V13zm-.8-5.3h.1v-.1h-.1zm-1.7 0h-.1v.1h.1zm0-.7v-.1h-.1V7zm4.1 0h.1v-.1h-.1zm0 .7v.1h.1v-.1zm-1.6 0v-.1h-.1v.1zm2.3 4.5l-.081-.058-.019.026v.032zm3.2-4.5l.081.058.113-.158H58.5zM55.3 13h-.1v.1h.1zm4.1 0v.1h.1V13zm0-.7h.1v-.1h-.1zm-3.2 0l-.082-.058-.112.158h.194zm3.2-4.5l.081.058.019-.026V7.8zm0-.8h.1v-.1h-.1zm-4 0v-.1h-.1V7zm0 .7h-.1v.1h.1zm6.3 5.3h-.1v.1h.1zm.7 0v.1h.1V13zm-.7-5.3h.1v-.1h-.1zm-1.7 0h-.1v.1h.1zm0-.7v-.1h-.1V7zm4.1 0h.1v-.1h-.1zm0 .7v.1h.1v-.1zm-1.7 0v-.1h-.1v.1zm4.8 5.3h-.1v.1h.1zm0-6v-.1h-.1V7zm3.6 5.6l.045.09.014-.008.012-.011zm.2-2.1l-.07.07zm-.7-.5l-.032-.095-.284.095.284.095zm.6-.5l.09.045.003-.007.002-.006zm.061-.176l.094.034zm0 0l-.093-.035v.002zm0 0l.094.034zm0 0l-.093-.035zm0 0l.094.034zM70.6 7.5l-.07.07zM68 9.6h-.1v.1h.1zm2.1-.3l.07.07zm0-1.3l.07-.07zM68 7.7v-.1h-.1v.1zm0 4.6h-.1v.1h.1zm0-2v-.1h-.1v.1zm2.3.3l-.07.07zm0 1.4l-.07-.07zm2.9-4.3v-.1h-.1v.1zm2.7 0v.1h.1v-.1zm-2.7 1.9h-.1v.1h.1zm2.5 0h.1v-.1h-.1zm0 .7v.1h.1v-.1zm-2.5 0v-.1h-.1v.1zm0 1.9h-.1v.1h.1zm2.7 0h.1v-.1h-.1zm0 .8v.1h.1V13zm-3.5 0h-.1v.1h.1zm0-6v-.1h-.1V7zm3.5 0h.1v-.1h-.1zm1.2 0v-.1H77V7zm.8 0h.1v-.1h-.1zm-.8 6H77v.1h.1zm.8 0v.1h.1V13zM43 13c-.385 0-.755-.096-1.03-.37l-.14.14c.325.326.755.43 1.17.43zm1.33-.47c-.191.19-.378.306-.587.375-.21.07-.448.095-.743.095v.2c.305 0 .567-.025.807-.105.241-.08.454-.215.664-.424zm.47-1.43c0 .682-.195 1.153-.47 1.43l.14.14c.325-.323.53-.852.53-1.57zm0-4.1v4.1h.2V7zm-.7.1h.8v-.2h-.8zm.1 4V7H44v4.1zm-.33.97c.226-.225.33-.555.33-.97H44c0 .385-.096.655-.27.83zm-.87.33c.208 0 .372-.026.512-.082a1.05 1.05 0 00.359-.247l-.142-.142a.853.853 0 01-.291.203c-.11.044-.246.068-.438.068zm-1.195-.968c.103.307.235.552.43.719.197.169.447.249.765.249v-.2c-.282 0-.482-.07-.635-.2-.155-.134-.273-.34-.37-.632zm-.566.36l.7-.3-.078-.184-.7.3zm.716.825a1.325 1.325 0 01-.358-.396 6.125 6.125 0 01-.308-.566l-.179.09c.1.199.202.404.318.584.116.18.25.343.416.454zM49.7 7.6H47v.2h2.7zm-.1-.6v.7h.2V7zm-3.4.1h3.5v-.2h-3.5zm.1 5.9V7h-.2v6zm3.4-.1h-3.5v.2h3.5zm-.1-.7v.8h.2v-.8zm-2.6.1h2.7v-.2H47zm-.1-2v1.9h.2v-1.9zm2.6-.1H47v.2h2.5zm-.1-.6v.7h.2v-.7zm-2.4.1h2.5v-.2H47zm-.1-2v1.9h.2V7.7zm5.3 5.4h.8v-.2h-.8zm-.1-5.4V13h.2V7.7zm-1.6.1h1.7v-.2h-1.7zm-.1-.8v.7h.2V7zm4.2-.1h-4.1v.2h4.1zm.1.8V7h-.2v.7zm-1.7.1h1.6v-.2H53zm.1 5.2V7.7h-.2V13zm2.281-.742l3.2-4.5-.163-.116-3.2 4.5zM55.4 13v-.8h-.2v.8zm4-.1h-4.1v.2h4.1zm-.1-.6v.7h.2v-.7zm-3.1.1h3.2v-.2h-3.2zm3.118-4.658l-3.2 4.5.163.116 3.2-4.5zM59.3 7v.8h.2V7zm-3.9.1h4v-.2h-4zm.1.6V7h-.2v.7zm3-.1h-3.1v.2h3.1zm3.2 5.5h.7v-.2h-.7zm-.1-5.4V13h.2V7.7zm-1.6.1h1.7v-.2H60zm-.1-.8v.7h.2V7zm4.2-.1H60v.2h4.1zm.1.8V7H64v.7zm-1.8.1h1.7v-.2h-1.7zm.1 5.2V7.7h-.2V13zm4.8 0V7h-.2v6zm2.2-.1h-2.3v.2h2.3zm1.255-.39c-.402.202-.782.39-1.255.39v.2c.527 0 .947-.212 1.345-.41zm.445-1.11c0 .47-.188.846-.47 1.13l.14.14c.317-.316.53-.74.53-1.27zm-.27-.83c.174.175.27.445.27.83h.2c0-.415-.104-.745-.33-.97zm-.662-.475c.275.091.46.274.661.476l.142-.142c-.199-.198-.414-.415-.74-.524zm.542-.64a.924.924 0 01-.542.45l.064.19c.325-.109.546-.327.657-.55zm.057-.165l-.062.178.19.064.06-.174zm0 0v.001l.189.066zm0-.001l.188.07zm0 0v.001l.189.067zm0 0l.188.07zM71 8.7c0 .218-.057.378-.133.59l.189.067c.075-.21.144-.4.144-.657zm-.47-1.13c.282.284.47.66.47 1.13h.2c0-.53-.213-.954-.53-1.27zM69.4 7.1c.47 0 .846.187 1.13.47l.14-.14a1.756 1.756 0 00-1.27-.53zm-2.2 0h2.2v-.2h-2.2zm2.2 2.4H68v.2h1.4zm.63-.27a.94.94 0 01-.283.204.831.831 0 01-.347.066v.2c.162 0 .3-.027.428-.084a1.14 1.14 0 00.343-.245zm.27-.53c0 .164-.082.34-.27.53l.14.14c.212-.21.33-.434.33-.67zm-.27-.63c.18.18.27.455.27.63h.2c0-.225-.11-.55-.33-.77zm-.63-.27c.138 0 .25.023.347.066a.94.94 0 01.282.205l.142-.142a1.14 1.14 0 00-.343-.245A1.032 1.032 0 0069.4 7.6zm-1.4 0h1.4v-.2H68zm.1 1.8V7.7h-.2v1.9zm-.1 2.8h1.6v-.2H68zm-.1-2.1v2h.2v-2zm1.7-.1H68v.2h1.6zm.77.33a1.14 1.14 0 00-.342-.246 1.033 1.033 0 00-.428-.084v.2c.138 0 .25.023.347.066a.94.94 0 01.282.205zm.33.77c0-.225-.11-.55-.33-.77l-.14.14c.18.18.27.455.27.63zm-.33.77c.107-.105.19-.215.246-.342a1.03 1.03 0 00.084-.428h-.2c0 .138-.023.25-.066.347a.942.942 0 01-.205.282zm-.77.33c.162 0 .3-.027.428-.084a1.14 1.14 0 00.343-.245l-.142-.142a.94.94 0 01-.282.205.831.831 0 01-.347.066zm3.6-4.6h2.7v-.2h-2.7zm.1 1.8V7.7h-.2v1.9zm2.4-.1h-2.5v.2h2.5zm.1.8v-.7h-.2v.7zm-2.6.1h2.5v-.2h-2.5zm.1 1.8v-1.9h-.2v1.9zm2.6-.1h-2.7v.2h2.7zm.1.9v-.8h-.2v.8zm-3.6.1h3.5v-.2h-3.5zM72.3 7v6h.2V7zm3.6-.1h-3.5v.2h3.5zm.1.8V7h-.2v.7zm1.1-.6h.8v-.2h-.8zm.1 5.9V7H77v6zm.7-.1h-.8v.2h.8zM77.8 7v6h.2V7z"/><defs id="defs912"><linearGradient gradientTransform="translate(-2 -1)" gradientUnits="userSpaceOnUse" y2="-1.055" x2="-.431" y1="-6.427" x1="19.437" id="paint0_linear"><stop id="stop874" stop-color="#00A0FF"/><stop id="stop876" stop-color="#00A1FF" offset=".007"/><stop id="stop878" stop-color="#00BEFF" offset=".26"/><stop id="stop880" stop-color="#00D2FF" offset=".512"/><stop id="stop882" stop-color="#00DFFF" offset=".76"/><stop id="stop884" stop-color="#00E3FF" offset="1"/></linearGradient><linearGradient gradientTransform="translate(-2 -1)" gradientUnits="userSpaceOnUse" y2="10.869" x2="11.637" y1="10.869" x1="35.834" id="paint1_linear"><stop id="stop887" stop-color="#FFE000"/><stop id="stop889" stop-color="#FFBD00" offset=".409"/><stop id="stop891" stop-color="orange" offset=".775"/><stop id="stop893" stop-color="#FF9C00" offset="1"/></linearGradient><linearGradient gradientTransform="translate(-2 -1)" gradientUnits="userSpaceOnUse" y2="41.318" x2="-3.882" y1="14.514" x1="12.083" id="paint2_linear"><stop id="stop896" stop-color="#FF3A44"/><stop id="stop898" stop-color="#C31162" offset="1"/></linearGradient><linearGradient gradientTransform="translate(-2 -1)" gradientUnits="userSpaceOnUse" y2="17.066" x2="9.755" y1="5.08" x1="2.682" id="paint3_linear"><stop id="stop901" stop-color="#32A071"/><stop id="stop903" stop-color="#2DA771" offset=".069"/><stop id="stop905" stop-color="#15CF74" offset=".476"/><stop id="stop907" stop-color="#06E775" offset=".801"/><stop id="stop909" stop-color="#00F076" offset="1"/></linearGradient><filter color-interpolation-filters="sRGB" filterUnits="userSpaceOnUse" height="44" width="139" y="0" x="0" id="filter0_d"><feFlood id="feFlood859" result="BackgroundImageFix" flood-opacity="0"/><feColorMatrix id="feColorMatrix861" values="0 0 0 0 0 0 0 0 0 0 0 0 0 0 0 0 0 0 127 0" type="matrix" in="SourceAlpha"/><feOffset id="feOffset863" dy="1"/><feGaussianBlur id="feGaussianBlur865" stdDeviation="1"/><feColorMatrix id="feColorMatrix867" values="0 0 0 0 0 0 0 0 0 0 0 0 0 0 0 0 0 0 0.05 0" type="matrix"/><feBlend id="feBlend869" result="effect1_dropShadow" in2="BackgroundImageFix" mode="normal"/><feBlend id="feBlend871" result="shape" in2="effect1_dropShadow" in="SourceGraphic" mode="normal"/></filter></defs></svg>