<svg xmlns="http://www.w3.org/2000/svg" fill="none" height="40" width="141"><g transform="translate(-2 -1)" filter="url(#filter0_d)"><path fill="#fff" d="M137.984 41H6.939C4.212 40.994 2.004 38.878 2 36.267V5.726C2.004 3.116 4.214 1.002 6.94 1h131.044C140.705 1 143 3.12 143 5.726v30.541c0 2.605-2.295 4.733-5.016 4.733z"/><path stroke-opacity=".1" stroke="#000" d="M137.984 40.5H6.94c-2.472-.005-4.436-1.918-4.44-4.233V5.727C2.504 3.412 4.469 1.501 6.94 1.5h131.044c2.477 0 4.516 1.927 4.516 4.226v30.541c0 2.3-2.04 4.233-4.516 4.233z"/></g><path fill="#101010" d="M49.174 18.508l-2.533 9.401-2.448-9.401h-1.921L45.434 30h2.261l2.533-8.976L52.761 30h2.278l3.145-11.492h-1.921l-2.431 9.401-2.55-9.401zm12.35 10.2c-1.31 0-1.921-.799-1.955-2.04h4.845c.085-.323.119-.884.119-1.275 0-1.666-.901-3.315-3.18-3.315-2.362 0-3.518 1.819-3.518 4.046 0 2.363 1.088 4.063 3.689 4.063 1.224 0 2.295-.527 2.839-1.122l-.816-1.122a3.108 3.108 0 01-2.023.765zm-1.955-3.298c.068-1.088.56-1.938 1.785-1.938.935 0 1.58.612 1.58 1.649 0 .068 0 .187-.016.289zm7.842-7.14h-1.7V30h.884l.51-.697c.425.442 1.156.884 2.363.884 2.193 0 3.315-1.632 3.315-4.08 0-2.499-1.054-4.029-3.315-4.029-1.088 0-1.683.391-2.057.816zm3.62 7.837c0 1.428-.407 2.499-1.954 2.499a2.077 2.077 0 01-1.666-.816v-3.4c.255-.323.765-.731 1.666-.731 1.513 0 1.955 1.02 1.955 2.448zm7.632-7.837h-1.7V30h.884l.51-.697c.425.442 1.156.884 2.363.884 2.193 0 3.315-1.632 3.315-4.08 0-2.499-1.054-4.029-3.315-4.029-1.088 0-1.683.391-2.057.816zm3.62 7.837c0 1.428-.407 2.499-1.954 2.499a2.077 2.077 0 01-1.666-.816v-3.4c.255-.323.765-.731 1.666-.731 1.513 0 1.955 1.02 1.955 2.448zm4.594-2.601v-1.258h-1.632V30h1.7v-4.964c.323-.697.884-1.19 1.683-1.19.357 0 .816.051 1.156.153l.153-1.819a3.893 3.893 0 00-.918-.102c-1.122 0-1.717.68-2.125 1.428zm6.859-1.428c-2.5 0-3.604 1.717-3.604 4.063 0 2.312 1.139 4.046 3.536 4.046 2.533 0 3.62-1.717 3.62-4.08 0-2.312-1.104-4.029-3.552-4.029zm-.034 6.562c-1.258 0-1.82-.918-1.82-2.533 0-1.564.545-2.482 1.82-2.482 1.292 0 1.853.918 1.853 2.516 0 1.547-.561 2.499-1.853 2.499zm9.262-6.392l-1.819 5.916-1.768-5.916h-1.785L100.057 30h1.887l1.836-5.576L105.633 30h1.887l2.448-7.752h-1.785l-1.751 5.916-1.819-5.916zm13.318.952c-.493-.544-1.36-1.122-2.839-1.122-2.227 0-3.043 1.309-3.043 2.431 0 1.071.663 1.853 1.972 2.176l1.343.34c.629.153.986.425.986.884 0 .646-.595.969-1.445.969-1.088 0-1.683-.544-2.108-1.037l-1.003 1.037c.476.595 1.411 1.309 3.06 1.309 2.329 0 3.23-1.156 3.23-2.414 0-1.122-.697-1.887-2.176-2.227l-1.309-.306c-.612-.136-.833-.459-.833-.884 0-.527.374-.969 1.275-.969.833 0 1.479.357 1.904.833zm4.577 5.508c-1.309 0-1.921-.799-1.955-2.04h4.845c.085-.323.119-.884.119-1.275 0-1.666-.901-3.315-3.179-3.315-2.363 0-3.519 1.819-3.519 4.046 0 2.363 1.088 4.063 3.689 4.063 1.224 0 2.295-.527 2.839-1.122l-.816-1.122a3.108 3.108 0 01-2.023.765zm-1.955-3.298c.068-1.088.561-1.938 1.785-1.938.935 0 1.581.612 1.581 1.649 0 .068 0 .187-.017.289zm7.774-1.904v-1.258h-1.632V30h1.7v-4.964c.323-.697.884-1.19 1.683-1.19.357 0 .816.051 1.156.153l.153-1.819a3.893 3.893 0 00-.918-.102c-1.122 0-1.717.68-2.125 1.428z"/><path fill="#000" d="M41.243 12.208c.288.522.792.882 1.548.882 1.098 0 1.845-.63 1.845-2.25V6.916h-.549v3.933c0 1.296-.495 1.728-1.296 1.728-.522 0-.846-.18-1.116-.657zm6.02.297v-2.394h2.655v-.495h-2.655V7.411h2.952v-.495h-3.52V13h3.556v-.495zm4.254-5.589v.495h1.818V13h.567V7.411h1.809v-.495zm9.169 0H57.04v.495H60l-3.14 5.148V13h3.87v-.495h-3.186l3.14-5.139zm1.244 0v.495h1.818V13h.567V7.411h1.809v-.495zM70.06 13h.568V6.916h-.567zm5.75-.747l-1.773-5.337h-.792L72.38 13h.567l.738-5.418 1.8 5.418h.62l1.81-5.4.729 5.4h.576l-.864-6.084H77.6z"/><path fill="#C4C4C4" d="M11 9h22v22H11z"/><path stroke-width="2" stroke="#101010" fill="#101010" d="M11 10h22v20H11z"/><path stroke-width="2" stroke="#fff" d="M10 14h24"/><circle fill="#fff" r="1" cy="11" cx="12"/><circle fill="#fff" r="1" cy="11" cx="15"/><circle fill="#fff" r="1" cy="11" cx="18"/><defs id="defs870"><filter color-interpolation-filters="sRGB" filterUnits="userSpaceOnUse" height="44" width="145" y="0" x="0" id="filter0_d"><feFlood id="feFlood855" result="BackgroundImageFix" flood-opacity="0"/><feColorMatrix id="feColorMatrix857" values="0 0 0 0 0 0 0 0 0 0 0 0 0 0 0 0 0 0 127 0" type="matrix" in="SourceAlpha"/><feOffset id="feOffset859" dy="1"/><feGaussianBlur id="feGaussianBlur861" stdDeviation="1"/><feColorMatrix id="feColorMatrix863" values="0 0 0 0 0 0 0 0 0 0 0 0 0 0 0 0 0 0 0.05 0" type="matrix"/><feBlend id="feBlend865" result="effect1_dropShadow" in2="BackgroundImageFix" mode="normal"/><feBlend id="feBlend867" result="shape" in2="effect1_dropShadow" in="SourceGraphic" mode="normal"/></filter></defs></svg>