
		<svg xmlns="http://www.w3.org/2000/svg" xmlns:xlink="http://www.w3.org/1999/xlink" version="1.1" width="3176.470588235294" height="1235.294117647059">
			
			<g transform="scale(8.823529411764707) translate(10, 10)">
				<defs id="SvgjsDefs1078"><linearGradient id="SvgjsLinearGradient1083"><stop id="SvgjsStop1084" stop-color="#147d6c" offset="0"></stop><stop id="SvgjsStop1085" stop-color="#1effff" offset="1"></stop></linearGradient><linearGradient id="SvgjsLinearGradient1086"><stop id="SvgjsStop1087" stop-color="#147d6c" offset="0"></stop><stop id="SvgjsStop1088" stop-color="#1effff" offset="1"></stop></linearGradient></defs><g id="SvgjsG1079" featureKey="symbolFeature-0" transform="matrix(1.0638297872340425,0,0,1.0638297872340425,16.80851063829787,16.80851063829787)" fill="url(#SvgjsLinearGradient1083)"><g xmlns="http://www.w3.org/2000/svg" transform="translate(0,-952.36218)"><path style="text-indent:0;text-transform:none;direction:ltr;block-progression:tb;baseline-shift:baseline;color:;enable-background:accumulate;" d="m 50,955.36217 c -25.9337,0 -47,21.06644 -47,47.00003 0,25.9336 21.0663,47 47,47 25.9337,0 47,-21.0664 47,-47 0,-9.4492 -2.7889,-18.2516 -7.5938,-25.62503 0.9956,-1.55347 1.5938,-3.40354 1.5938,-5.375 0,-5.49914 -4.5008,-10 -10,-10 -1.9739,0 -3.8203,0.59593 -5.375,1.59375 C 68.2576,958.16276 59.4365,955.36217 50,955.36217 z m 0,4 c 8.3425,0 16.1012,2.36524 22.6875,6.46875 -1.0663,1.58955 -1.6875,3.48456 -1.6875,5.53125 0,5.49913 4.5008,10.00003 10,10.00003 2.0378,0 3.9459,-0.5984 5.5312,-1.6563 4.0908,6.5813 6.4688,14.3327 6.4688,22.6563 0,23.7718 -19.2281,43 -43,43 -23.7719,0 -43,-19.2282 -43,-43 0,-23.7718 19.2281,-43.00003 43,-43.00003 z m 0,15 c -15.4403,0 -28,12.55983 -28,28.00003 0,4.8739 1.2706,9.4458 3.4688,13.4375 -0.9189,1.302 -1.4688,2.8596 -1.4688,4.5625 0,4.3946 3.6054,8 8,8 1.6885,0 3.2667,-0.5327 4.5625,-1.4375 3.9904,2.1891 8.5745,3.4375 13.4375,3.4375 15.4403,0 28,-12.5598 28,-28 0,-15.4402 -12.5597,-28.00003 -28,-28.00003 z m 0,4.00003 c 13.2785,0 24,10.7215 24,24 0,13.2784 -10.7215,24 -24,24 -3.9013,0 -7.5376,-0.9458 -10.7812,-2.5938 0.4905,-1.0338 0.7812,-2.1927 0.7812,-3.4062 0,-4.3946 -3.6054,-8 -8,-8 -1.231,0 -2.3923,0.3086 -3.4375,0.8125 C 26.9168,1009.9272 26,1006.2695 26,1002.3622 c 0,-13.2785 10.7215,-24 24,-24 z m 0,13 c -6.0515,0 -11,4.9485 -11,11 0,6.0514 4.9485,11 11,11 6.0515,0 11,-4.9486 11,-11 0,-6.0515 -4.9485,-11 -11,-11 z m 0,4 c 3.8897,0 7,3.1103 7,7 0,3.8896 -3.1103,7 -7,7 -3.8897,0 -7,-3.1104 -7,-7 0,-3.8897 3.1103,-7 7,-7 z" fill="url(#SvgjsLinearGradient1083)" fill-opacity="1" stroke="none" marker="none" visibility="visible" display="inline" overflow="visible"></path></g></g><g id="SvgjsG1080" featureKey="nameFeature-0" transform="matrix(1.9000569631487785,0,0,1.9000569631487785,137.33992097640592,16.11134291474902)" fill="url(#SvgjsLinearGradient1086)"><path d="M15.96 40.48 c-8.4 0 -14.56 -6.12 -14.56 -14.48 s6.16 -14.48 14.56 -14.48 c3.88 0 7.48 1.48 10.32 4.28 l-3.96 4 c-1.56 -1.8 -3.96 -2.88 -6.36 -2.88 c-4.84 0 -8.36 3.8 -8.36 9.08 s3.52 9.08 8.36 9.08 c2 0 3.88 -0.48 5.44 -1.76 l0 -4.04 l-6.68 0 l0 -5.24 l12.76 0 l0 11.48 c-2.76 3.28 -7.32 4.96 -11.52 4.96 z M42.9 40 l0 -2.36 c-1.2 1.72 -3.64 2.84 -5.92 2.84 c-4.28 0 -7.2 -2.92 -7.2 -7.28 l0 -12.88 l5.56 0 l0 12.28 c0 1.92 1.52 3.16 3.64 3.16 c2.2 0 3.8 -1.28 3.92 -3.48 l0 -11.96 l5.56 0 l0 19.68 l-5.56 0 z M69.88 28.240000000000002 l0 11.76 l-5.56 0 l0 -12.32 c0 -1.88 -1.52 -3.12 -3.4 -3.12 c-2.12 0 -3.6 1.6 -3.6 3.68 l0 11.76 l-5.56 0 l0 -19.68 l5.56 0 l0 2.4 c1.32 -1.76 3.24 -2.88 5.64 -2.88 c2.56 0 4.64 1.16 5.8 3.08 c1.64 -1.8 3.6 -3.08 6.48 -3.08 c4.32 0 7.2 2.88 7.2 7.32 l0 12.84 l-5.56 0 l0 -12.32 c0 -1.88 -1.56 -3.12 -3.44 -3.12 c-2.12 0 -3.56 1.6 -3.56 3.68 z M85.58000000000001 12 l5.56 0 l0 10.44 c1.32 -1.56 3.48 -2.6 5.72 -2.6 c5.76 0 9.8 4.28 9.8 10.32 s-4.04 10.32 -9.68 10.32 c-2.2 0 -4.72 -1.04 -5.84 -2.76 l0 2.28 l-5.56 0 l0 -28 z M101.06 30.16 c0 -3.08 -1.8 -5.6 -5.12 -5.6 c-2.76 0 -4.8 2.4 -4.8 5.6 s2.08 5.6 4.88 5.6 c3 0 5.04 -2.24 5.04 -5.6 z"></path></g>
			</g>
		</svg>
	