<svg xmlns="http://www.w3.org/2000/svg" width="275" height="276.337" viewBox="0 0 275 276.337">
  <path id="Path_1670" data-name="Path 1670" d="M165.66,8967.734c-75.87,0-137.5,61.936-137.5,138.161,0,76.25,61.63,138.176,137.5,138.176s137.5-61.926,137.5-138.176a138,138,0,0,0-22.216-75.321,29.339,29.339,0,0,0-24.593-45.209,29.088,29.088,0,0,0-15.725,4.688A136.809,136.809,0,0,0,165.66,8967.734Zm0,11.766a124.46,124.46,0,0,1,66.373,19.014,29.111,29.111,0,0,0-4.937,16.267,29.415,29.415,0,0,0,29.255,29.392,28.922,28.922,0,0,0,16.182-4.869,126.127,126.127,0,0,1,18.925,66.593c0,69.9-56.252,126.422-125.8,126.422S39.862,9175.8,39.862,9105.9C39.862,9036.021,96.115,8979.5,165.66,8979.5Zm0,44.093c-45.171,0-81.915,36.927-81.915,82.3a81.954,81.954,0,0,0,10.148,39.518,23.21,23.21,0,0,0-4.3,13.422,23.543,23.543,0,0,0,23.4,23.5,23.2,23.2,0,0,0,13.348-4.224,81.1,81.1,0,0,0,39.312,10.1c45.171,0,81.915-36.919,81.915-82.315C247.575,9060.52,210.831,9023.593,165.66,9023.593Zm0,11.753a70.557,70.557,0,0,1,0,141.112,68.978,68.978,0,0,1-31.541-7.625A23.438,23.438,0,0,0,113,9135.3a23.044,23.044,0,0,0-10.056,2.388,70.667,70.667,0,0,1,62.716-102.342Zm0,38.223a32.338,32.338,0,1,0,32.181,32.327A32.342,32.342,0,0,0,165.66,9073.568Zm0,11.77a20.571,20.571,0,1,1-20.479,20.558A20.426,20.426,0,0,1,165.66,9085.338Z" transform="translate(-28.16 -8967.734)" fill="#ebf2f7"/>
</svg>
