<?xml version="1.0" encoding="UTF-8" standalone="no"?>
<svg
   xmlns:dc="http://purl.org/dc/elements/1.1/"
   xmlns:cc="http://creativecommons.org/ns#"
   xmlns:rdf="http://www.w3.org/1999/02/22-rdf-syntax-ns#"
   xmlns:svg="http://www.w3.org/2000/svg"
   xmlns="http://www.w3.org/2000/svg"
   xmlns:xlink="http://www.w3.org/1999/xlink"
   xmlns:sodipodi="http://sodipodi.sourceforge.net/DTD/sodipodi-0.dtd"
   xmlns:inkscape="http://www.inkscape.org/namespaces/inkscape"
   inkscape:version="1.1-dev (f9311a1, 2019-12-25)"
   sodipodi:docname="gumb.svg"
   id="svg27"
   height="882.35321"
   width="2823.5293"
   version="1.1">
  <metadata
     id="metadata33">
    <rdf:RDF>
      <cc:Work
         rdf:about="">
        <dc:format>image/svg+xml</dc:format>
        <dc:type
           rdf:resource="http://purl.org/dc/dcmitype/StillImage" />
      </cc:Work>
    </rdf:RDF>
  </metadata>
  <defs
     id="defs31">
    <linearGradient
       gradientUnits="userSpaceOnUse"
       y2="955.36202"
       x2="97.000015"
       y1="955.36202"
       x1="3.0000005"
       id="linearGradient35"
       xlink:href="#SvgjsLinearGradient1083"
       inkscape:collect="always" />
    <linearGradient
       gradientUnits="userSpaceOnUse"
       y2="955.36202"
       x2="97.000015"
       y1="955.36202"
       x1="3.0000005"
       id="linearGradient37"
       xlink:href="#SvgjsLinearGradient1083"
       inkscape:collect="always" />
    <linearGradient
       gradientUnits="userSpaceOnUse"
       y2="2.9999895"
       x2="97.000015"
       y1="2.9999895"
       x1="3.0000005"
       id="linearGradient39"
       xlink:href="#SvgjsLinearGradient1083"
       inkscape:collect="always" />
    <linearGradient
       gradientUnits="userSpaceOnUse"
       y2="21.962657"
       x2="55.946017"
       y1="21.962657"
       x1="0.73433737"
       gradientTransform="scale(1.9064807,0.5245267)"
       id="linearGradient41"
       xlink:href="#SvgjsLinearGradient1086"
       inkscape:collect="always" />
    <linearGradient
       gradientUnits="userSpaceOnUse"
       y2="21.962657"
       x2="55.946017"
       y1="21.962657"
       x1="0.73433737"
       gradientTransform="scale(1.9064807,0.5245267)"
       id="linearGradient43"
       xlink:href="#SvgjsLinearGradient1086"
       inkscape:collect="always" />
  </defs>
  <sodipodi:namedview
     inkscape:current-layer="svg27"
     inkscape:window-maximized="0"
     inkscape:window-y="43"
     inkscape:window-x="48"
     inkscape:cy="352.94125"
     inkscape:cx="1323.5295"
     inkscape:zoom="0.27609258"
     showgrid="false"
     id="namedview29"
     inkscape:window-height="1196"
     inkscape:window-width="2143"
     inkscape:pageshadow="2"
     inkscape:pageopacity="0"
     guidetolerance="10"
     gridtolerance="10"
     objecttolerance="10"
     borderopacity="1"
     inkscape:document-rotation="0"
     bordercolor="#666666"
     pagecolor="#ffffff" />
  <g
     id="g25"
     transform="matrix(8.8235294,0,0,8.8235294,-176.47059,-176.47049)">
    <defs
       id="SvgjsDefs1078">
      <linearGradient
         id="SvgjsLinearGradient1083">
        <stop
           offset="0"
           stop-color="#147d6c"
           id="SvgjsStop1084" />
        <stop
           offset="1"
           stop-color="#1effff"
           id="SvgjsStop1085" />
      </linearGradient>
      <linearGradient
         id="SvgjsLinearGradient1086">
        <stop
           offset="0"
           stop-color="#147d6c"
           id="SvgjsStop1087" />
        <stop
           offset="1"
           stop-color="#1effff"
           id="SvgjsStop1088" />
      </linearGradient>
    </defs>
    <g
       style="fill:url(#linearGradient39)"
       fill="url(#SvgjsLinearGradient1083)"
       transform="matrix(1.0638298,0,0,1.0638298,16.808511,16.808511)"
       featureKey="symbolFeature-0"
       id="SvgjsG1079">
      <g
         style="fill:url(#linearGradient37)"
         id="g19"
         transform="translate(0,-952.36218)">
        <path
           inkscape:connector-curvature="0"
           id="path17"
           overflow="visible"
           display="inline"
           visibility="visible"
           marker="none"
           stroke="none"
           fill-opacity="1"
           fill="url(#SvgjsLinearGradient1083)"
           d="m 50,955.36217 c -25.9337,0 -47,21.06644 -47,47.00003 0,25.9336 21.0663,47 47,47 25.9337,0 47,-21.0664 47,-47 0,-9.4492 -2.7889,-18.2516 -7.5938,-25.62503 0.9956,-1.55347 1.5938,-3.40354 1.5938,-5.375 0,-5.49914 -4.5008,-10 -10,-10 -1.9739,0 -3.8203,0.59593 -5.375,1.59375 C 68.2576,958.16276 59.4365,955.36217 50,955.36217 Z m 0,4 c 8.3425,0 16.1012,2.36524 22.6875,6.46875 -1.0663,1.58955 -1.6875,3.48456 -1.6875,5.53125 0,5.49913 4.5008,10.00003 10,10.00003 2.0378,0 3.9459,-0.5984 5.5312,-1.6563 4.0908,6.5813 6.4688,14.3327 6.4688,22.6563 0,23.7718 -19.2281,43 -43,43 -23.7719,0 -43,-19.2282 -43,-43 0,-23.7718 19.2281,-43.00003 43,-43.00003 z m 0,15 c -15.4403,0 -28,12.55983 -28,28.00003 0,4.8739 1.2706,9.4458 3.4688,13.4375 -0.9189,1.302 -1.4688,2.8596 -1.4688,4.5625 0,4.3946 3.6054,8 8,8 1.6885,0 3.2667,-0.5327 4.5625,-1.4375 3.9904,2.1891 8.5745,3.4375 13.4375,3.4375 15.4403,0 28,-12.5598 28,-28 0,-15.4402 -12.5597,-28.00003 -28,-28.00003 z m 0,4.00003 c 13.2785,0 24,10.7215 24,24 0,13.2784 -10.7215,24 -24,24 -3.9013,0 -7.5376,-0.9458 -10.7812,-2.5938 0.4905,-1.0338 0.7812,-2.1927 0.7812,-3.4062 0,-4.3946 -3.6054,-8 -8,-8 -1.231,0 -2.3923,0.3086 -3.4375,0.8125 C 26.9168,1009.9272 26,1006.2695 26,1002.3622 c 0,-13.2785 10.7215,-24 24,-24 z m 0,13 c -6.0515,0 -11,4.9485 -11,11 0,6.0514 4.9485,11 11,11 6.0515,0 11,-4.9486 11,-11 0,-6.0515 -4.9485,-11 -11,-11 z m 0,4 c 3.8897,0 7,3.1103 7,7 0,3.8896 -3.1103,7 -7,7 -3.8897,0 -7,-3.1104 -7,-7 0,-3.8897 3.1103,-7 7,-7 z"
           style="text-indent:0;text-transform:none;direction:ltr;baseline-shift:baseline;fill:url(#linearGradient35);enable-background:accumulate" />
      </g>
    </g>
    <g
       style="fill:url(#linearGradient43)"
       fill="url(#SvgjsLinearGradient1086)"
       transform="matrix(1.900057,0,0,1.900057,137.33992,16.111343)"
       featureKey="nameFeature-0"
       id="SvgjsG1080">
      <path
         style="fill:url(#linearGradient41)"
         inkscape:connector-curvature="0"
         id="path22"
         d="M 15.96,40.48 C 7.56,40.48 1.4,34.36 1.4,26 c 0,-8.36 6.16,-14.48 14.56,-14.48 3.88,0 7.48,1.48 10.32,4.28 l -3.96,4 c -1.56,-1.8 -3.96,-2.88 -6.36,-2.88 -4.84,0 -8.36,3.8 -8.36,9.08 0,5.28 3.52,9.08 8.36,9.08 2,0 3.88,-0.48 5.44,-1.76 v -4.04 h -6.68 v -5.24 h 12.76 v 11.48 c -2.76,3.28 -7.32,4.96 -11.52,4.96 z M 42.9,40 v -2.36 c -1.2,1.72 -3.64,2.84 -5.92,2.84 -4.28,0 -7.2,-2.92 -7.2,-7.28 V 20.32 h 5.56 V 32.6 c 0,1.92 1.52,3.16 3.64,3.16 2.2,0 3.8,-1.28 3.92,-3.48 V 20.32 h 5.56 V 40 Z M 69.88,28.24 V 40 H 64.32 V 27.68 c 0,-1.88 -1.52,-3.12 -3.4,-3.12 -2.12,0 -3.6,1.6 -3.6,3.68 V 40 H 51.76 V 20.32 h 5.56 v 2.4 c 1.32,-1.76 3.24,-2.88 5.64,-2.88 2.56,0 4.64,1.16 5.8,3.08 1.64,-1.8 3.6,-3.08 6.48,-3.08 4.32,0 7.2,2.88 7.2,7.32 V 40 H 76.88 V 27.68 c 0,-1.88 -1.56,-3.12 -3.44,-3.12 -2.12,0 -3.56,1.6 -3.56,3.68 z M 85.58,12 h 5.56 v 10.44 c 1.32,-1.56 3.48,-2.6 5.72,-2.6 5.76,0 9.8,4.28 9.8,10.32 0,6.04 -4.04,10.32 -9.68,10.32 -2.2,0 -4.72,-1.04 -5.84,-2.76 V 40 h -5.56 z m 15.48,18.16 c 0,-3.08 -1.8,-5.6 -5.12,-5.6 -2.76,0 -4.8,2.4 -4.8,5.6 0,3.2 2.08,5.6 4.88,5.6 3,0 5.04,-2.24 5.04,-5.6 z" />
    </g>
  </g>
</svg>
