<?xml version="1.0" encoding="UTF-8" standalone="no"?>
<svg
   xmlns:dc="http://purl.org/dc/elements/1.1/"
   xmlns:cc="http://creativecommons.org/ns#"
   xmlns:rdf="http://www.w3.org/1999/02/22-rdf-syntax-ns#"
   xmlns:svg="http://www.w3.org/2000/svg"
   xmlns="http://www.w3.org/2000/svg"
   xmlns:xlink="http://www.w3.org/1999/xlink"
   xmlns:sodipodi="http://sodipodi.sourceforge.net/DTD/sodipodi-0.dtd"
   xmlns:inkscape="http://www.inkscape.org/namespaces/inkscape"
   version="1.1"
   width="882.35297"
   height="882.35321"
   id="svg27"
   sodipodi:docname="gumb-brand.svg"
   inkscape:version="1.1-dev (f9311a1, 2019-12-25)">
  <metadata
     id="metadata33">
    <rdf:RDF>
      <cc:Work
         rdf:about="">
        <dc:format>image/svg+xml</dc:format>
        <dc:type
           rdf:resource="http://purl.org/dc/dcmitype/StillImage" />
        <dc:title></dc:title>
      </cc:Work>
    </rdf:RDF>
  </metadata>
  <defs
     id="defs31">
    <linearGradient
       inkscape:collect="always"
       xlink:href="#SvgjsLinearGradient1083"
       id="linearGradient35"
       x1="3.0000005"
       y1="955.362"
       x2="97.000015"
       y2="955.362"
       gradientUnits="userSpaceOnUse" />
    <linearGradient
       inkscape:collect="always"
       xlink:href="#SvgjsLinearGradient1083"
       id="linearGradient37"
       x1="3.0000005"
       y1="955.362"
       x2="97.000015"
       y2="955.362"
       gradientUnits="userSpaceOnUse" />
    <linearGradient
       inkscape:collect="always"
       xlink:href="#SvgjsLinearGradient1083"
       id="linearGradient39"
       x1="3.0000005"
       y1="2.9999895"
       x2="97.000015"
       y2="2.9999895"
       gradientUnits="userSpaceOnUse" />
    <linearGradient
       inkscape:collect="always"
       xlink:href="#SvgjsLinearGradient1086"
       id="linearGradient43"
       gradientTransform="scale(1.9064807,0.5245267)"
       x1="0.73433739"
       y1="21.962658"
       x2="55.946018"
       y2="21.962658"
       gradientUnits="userSpaceOnUse" />
  </defs>
  <sodipodi:namedview
     pagecolor="#ffffff"
     bordercolor="#666666"
     inkscape:document-rotation="0"
     borderopacity="1"
     objecttolerance="10"
     gridtolerance="10"
     guidetolerance="10"
     inkscape:pageopacity="0"
     inkscape:pageshadow="2"
     inkscape:window-width="2143"
     inkscape:window-height="1196"
     id="namedview29"
     showgrid="false"
     inkscape:zoom="0.27609258"
     inkscape:cx="1323.5295"
     inkscape:cy="352.94124"
     inkscape:window-x="48"
     inkscape:window-y="23"
     inkscape:window-maximized="0"
     inkscape:current-layer="g25" />
  <g
     transform="matrix(8.8235294,0,0,8.8235294,-176.47059,-176.4705)"
     id="g25">
    <defs
       id="SvgjsDefs1078">
      <linearGradient
         id="SvgjsLinearGradient1083">
        <stop
           id="SvgjsStop1084"
           stop-color="#147d6c"
           offset="0" />
        <stop
           id="SvgjsStop1085"
           stop-color="#1effff"
           offset="1" />
      </linearGradient>
      <linearGradient
         id="SvgjsLinearGradient1086">
        <stop
           id="SvgjsStop1087"
           stop-color="#147d6c"
           offset="0" />
        <stop
           id="SvgjsStop1088"
           stop-color="#1effff"
           offset="1" />
      </linearGradient>
    </defs>
    <g
       id="SvgjsG1079"
       featureKey="symbolFeature-0"
       transform="matrix(1.0638298,0,0,1.0638298,16.808511,16.808511)"
       fill="url(#SvgjsLinearGradient1083)"
       style="fill:url(#linearGradient39)">
      <g
         transform="translate(0,-952.36218)"
         id="g19"
         style="fill:url(#linearGradient37)">
        <path
           style="text-indent:0;text-transform:none;direction:ltr;baseline-shift:baseline;fill:url(#linearGradient35);enable-background:accumulate"
           d="m 50,955.36217 c -25.9337,0 -47,21.06644 -47,47.00003 0,25.9336 21.0663,47 47,47 25.9337,0 47,-21.0664 47,-47 0,-9.4492 -2.7889,-18.2516 -7.5938,-25.62503 0.9956,-1.55347 1.5938,-3.40354 1.5938,-5.375 0,-5.49914 -4.5008,-10 -10,-10 -1.9739,0 -3.8203,0.59593 -5.375,1.59375 C 68.2576,958.16276 59.4365,955.36217 50,955.36217 Z m 0,4 c 8.3425,0 16.1012,2.36524 22.6875,6.46875 -1.0663,1.58955 -1.6875,3.48456 -1.6875,5.53125 0,5.49913 4.5008,10.00003 10,10.00003 2.0378,0 3.9459,-0.5984 5.5312,-1.6563 4.0908,6.5813 6.4688,14.3327 6.4688,22.6563 0,23.7718 -19.2281,43 -43,43 -23.7719,0 -43,-19.2282 -43,-43 0,-23.7718 19.2281,-43.00003 43,-43.00003 z m 0,15 c -15.4403,0 -28,12.55983 -28,28.00003 0,4.8739 1.2706,9.4458 3.4688,13.4375 -0.9189,1.302 -1.4688,2.8596 -1.4688,4.5625 0,4.3946 3.6054,8 8,8 1.6885,0 3.2667,-0.5327 4.5625,-1.4375 3.9904,2.1891 8.5745,3.4375 13.4375,3.4375 15.4403,0 28,-12.5598 28,-28 0,-15.4402 -12.5597,-28.00003 -28,-28.00003 z m 0,4.00003 c 13.2785,0 24,10.7215 24,24 0,13.2784 -10.7215,24 -24,24 -3.9013,0 -7.5376,-0.9458 -10.7812,-2.5938 0.4905,-1.0338 0.7812,-2.1927 0.7812,-3.4062 0,-4.3946 -3.6054,-8 -8,-8 -1.231,0 -2.3923,0.3086 -3.4375,0.8125 C 26.9168,1009.9272 26,1006.2695 26,1002.3622 c 0,-13.2785 10.7215,-24 24,-24 z m 0,13 c -6.0515,0 -11,4.9485 -11,11 0,6.0514 4.9485,11 11,11 6.0515,0 11,-4.9486 11,-11 0,-6.0515 -4.9485,-11 -11,-11 z m 0,4 c 3.8897,0 7,3.1103 7,7 0,3.8896 -3.1103,7 -7,7 -3.8897,0 -7,-3.1104 -7,-7 0,-3.8897 3.1103,-7 7,-7 z"
           fill="url(#SvgjsLinearGradient1083)"
           fill-opacity="1"
           stroke="none"
           marker="none"
           visibility="visible"
           display="inline"
           overflow="visible"
           id="path17"
           inkscape:connector-curvature="0" />
      </g>
    </g>
    <g
       id="SvgjsG1080"
       featureKey="nameFeature-0"
       transform="matrix(1.900057,0,0,1.900057,137.33992,16.111343)"
       fill="url(#SvgjsLinearGradient1086)"
       style="fill:url(#linearGradient43)" />
  </g>
</svg>
