<svg xmlns="http://www.w3.org/2000/svg" xmlns:xlink="http://www.w3.org/1999/xlink" height="882.353" width="882.353"><defs><linearGradient gradientUnits="userSpaceOnUse" y2="3" x2="97" y1="3" x1="3" id="c" xlink:href="#a"/><linearGradient gradientUnits="userSpaceOnUse" y2="21.963" x2="55.946" y1="21.963" x1=".734" gradientTransform="scale(1.90648 .52453)" id="d" xlink:href="#b"/></defs><g transform="matrix(8.82353 0 0 8.82353 -176.47 -176.47)"><defs><linearGradient id="a"><stop offset="0" stop-color="#147d6c"/><stop offset="1" stop-color="#1effff"/></linearGradient><linearGradient id="b"><stop offset="0" stop-color="#147d6c"/><stop offset="1" stop-color="#1effff"/></linearGradient></defs><path overflow="visible" d="M70 20c-27.589 0-50 22.411-50 50s22.411 50 50 50 50-22.411 50-50c0-10.052-2.967-19.417-8.079-27.26a10.596 10.596 0 001.696-5.719c0-5.85-4.788-10.638-10.638-10.638-2.1 0-4.064.634-5.718 1.695A49.886 49.886 0 0070 20zm0 4.255c8.875 0 17.129 2.517 24.136 6.882a10.51 10.51 0 00-1.796 5.884c0 5.85 4.789 10.639 10.639 10.639 2.168 0 4.197-.637 5.884-1.762A45.487 45.487 0 01115.745 70c0 25.29-20.456 45.745-45.745 45.745-25.29 0-45.745-20.456-45.745-45.745 0-25.29 20.456-45.745 45.745-45.745zm0 15.958c-16.426 0-29.787 13.361-29.787 29.787a29.537 29.537 0 003.69 14.295c-.978 1.385-1.563 3.042-1.563 4.854 0 4.675 3.836 8.51 8.511 8.51a8.465 8.465 0 004.854-1.529A29.65 29.65 0 0070 99.787c16.426 0 29.787-13.361 29.787-29.787S86.426 40.213 70 40.213zm0 4.255c14.126 0 25.532 11.406 25.532 25.532S84.126 95.532 70 95.532c-4.15 0-8.019-1.006-11.47-2.76.522-1.1.832-2.332.832-3.623 0-4.675-3.836-8.51-8.51-8.51-1.31 0-2.546.328-3.658.864-1.75-3.455-2.726-7.346-2.726-11.503 0-14.126 11.406-25.532 25.532-25.532zm0 13.83c-6.438 0-11.702 5.264-11.702 11.702S63.562 81.702 70 81.702 81.702 76.438 81.702 70 76.438 58.298 70 58.298zm0 4.255A7.415 7.415 0 0177.447 70 7.415 7.415 0 0170 77.447 7.415 7.415 0 0162.553 70 7.415 7.415 0 0170 62.553z" style="text-indent:0;text-transform:none" fill="#fff"/></g></svg>