<svg xmlns="http://www.w3.org/2000/svg" xmlns:xlink="http://www.w3.org/1999/xlink" height="882.353" width="2823.529"><defs><linearGradient gradientUnits="userSpaceOnUse" y2="955.362" x2="97" y1="955.362" x1="3" id="e" xlink:href="#a"/><linearGradient gradientUnits="userSpaceOnUse" y2="955.362" x2="97" y1="955.362" x1="3" id="d" xlink:href="#a"/><linearGradient gradientUnits="userSpaceOnUse" y2="3" x2="97" y1="3" x1="3" id="c" xlink:href="#a"/><linearGradient gradientUnits="userSpaceOnUse" y2="21.963" x2="55.946" y1="21.963" x1=".734" gradientTransform="scale(1.90648 .52453)" id="g" xlink:href="#b"/><linearGradient gradientUnits="userSpaceOnUse" y2="21.963" x2="55.946" y1="21.963" x1=".734" gradientTransform="scale(1.90648 .52453)" id="f" xlink:href="#b"/></defs><g transform="matrix(8.82353 0 0 8.82353 -176.47 -176.47)"><defs><linearGradient id="a"><stop offset="0" stop-color="#147d6c"/><stop offset="1" stop-color="#1effff"/></linearGradient><linearGradient id="b"><stop offset="0" stop-color="#147d6c"/><stop offset="1" stop-color="#1effff"/></linearGradient></defs><path overflow="visible" fill="url(#e)" d="M50 955.362c-25.934 0-47 21.067-47 47 0 25.934 21.066 47 47 47s47-21.066 47-47a46.78 46.78 0 00-7.594-25.625A9.96 9.96 0 0091 971.362c0-5.499-4.5-10-10-10-1.974 0-3.82.596-5.375 1.594A46.893 46.893 0 0050 955.362zm0 4c8.342 0 16.101 2.365 22.688 6.469A9.88 9.88 0 0071 971.362c0 5.5 4.5 10 10 10a9.932 9.932 0 005.531-1.656A42.758 42.758 0 0193 1002.362c0 23.772-19.228 43-43 43s-43-19.228-43-43 19.228-43 43-43zm0 15c-15.44 0-28 12.56-28 28 0 4.874 1.27 9.446 3.469 13.438-.92 1.302-1.469 2.86-1.469 4.562 0 4.395 3.605 8 8 8a7.957 7.957 0 004.563-1.437A27.87 27.87 0 0050 1030.362c15.44 0 28-12.56 28-28s-12.56-28-28-28zm0 4c13.278 0 24 10.722 24 24 0 13.279-10.722 24-24 24-3.901 0-7.538-.946-10.781-2.594a7.95 7.95 0 00.781-3.406c0-4.394-3.605-8-8-8-1.231 0-2.392.309-3.438.813-1.645-3.248-2.562-6.905-2.562-10.813 0-13.278 10.722-24 24-24zm0 13c-6.051 0-11 4.949-11 11 0 6.052 4.949 11 11 11s11-4.948 11-11c0-6.051-4.949-11-11-11zm0 4c3.89 0 7 3.11 7 7s-3.11 7-7 7-7-3.11-7-7 3.11-7 7-7z" style="text-indent:0;text-transform:none" transform="matrix(1.06383 0 0 1.06383 16.809 -996.343)"/><path d="M15.96 40.48C7.56 40.48 1.4 34.36 1.4 26s6.16-14.48 14.56-14.48c3.88 0 7.48 1.48 10.32 4.28l-3.96 4c-1.56-1.8-3.96-2.88-6.36-2.88-4.84 0-8.36 3.8-8.36 9.08s3.52 9.08 8.36 9.08c2 0 3.88-.48 5.44-1.76v-4.04h-6.68v-5.24h12.76v11.48c-2.76 3.28-7.32 4.96-11.52 4.96zM42.9 40v-2.36c-1.2 1.72-3.64 2.84-5.92 2.84-4.28 0-7.2-2.92-7.2-7.28V20.32h5.56V32.6c0 1.92 1.52 3.16 3.64 3.16 2.2 0 3.8-1.28 3.92-3.48V20.32h5.56V40zm26.98-11.76V40h-5.56V27.68c0-1.88-1.52-3.12-3.4-3.12-2.12 0-3.6 1.6-3.6 3.68V40h-5.56V20.32h5.56v2.4c1.32-1.76 3.24-2.88 5.64-2.88 2.56 0 4.64 1.16 5.8 3.08 1.64-1.8 3.6-3.08 6.48-3.08 4.32 0 7.2 2.88 7.2 7.32V40h-5.56V27.68c0-1.88-1.56-3.12-3.44-3.12-2.12 0-3.56 1.6-3.56 3.68zM85.58 12h5.56v10.44c1.32-1.56 3.48-2.6 5.72-2.6 5.76 0 9.8 4.28 9.8 10.32s-4.04 10.32-9.68 10.32c-2.2 0-4.72-1.04-5.84-2.76V40h-5.56zm15.48 18.16c0-3.08-1.8-5.6-5.12-5.6-2.76 0-4.8 2.4-4.8 5.6 0 3.2 2.08 5.6 4.88 5.6 3 0 5.04-2.24 5.04-5.6z" fill="url(#g)" transform="matrix(1.90006 0 0 1.90006 137.34 16.111)"/></g></svg>