<svg xmlns="http://www.w3.org/2000/svg" width="275" height="276.337"><path data-name="Path 1670" d="M137.5 0C61.63 0 0 61.936 0 138.161c0 76.25 61.63 138.176 137.5 138.176S275 214.411 275 138.161a138 138 0 00-22.216-75.321 29.339 29.339 0 00-24.593-45.209 29.088 29.088 0 00-15.725 4.688A136.809 136.809 0 00137.5 0zm0 11.766a124.46 124.46 0 0166.373 19.014 29.111 29.111 0 00-4.937 16.267 29.415 29.415 0 0029.255 29.392 28.922 28.922 0 0016.182-4.869 126.127 126.127 0 0118.925 66.593c0 69.9-56.252 126.422-125.8 126.422S11.702 208.066 11.702 138.166c0-69.879 56.253-126.4 125.798-126.4zm0 44.093c-45.171 0-81.915 36.927-81.915 82.3a81.954 81.954 0 0010.148 39.518 23.21 23.21 0 00-4.3 13.422 23.543 23.543 0 0023.4 23.5 23.2 23.2 0 0013.348-4.224 81.1 81.1 0 0039.312 10.1c45.171 0 81.915-36.919 81.915-82.315.007-45.374-36.737-82.301-81.908-82.301zm0 11.753a70.557 70.557 0 010 141.112 68.978 68.978 0 01-31.541-7.625 23.438 23.438 0 00-21.119-33.533 23.044 23.044 0 00-10.056 2.388A70.667 70.667 0 01137.5 67.612zm0 38.223a32.338 32.338 0 1032.181 32.327 32.342 32.342 0 00-32.181-32.328zm0 11.77a20.571 20.571 0 11-20.479 20.558 20.426 20.426 0 0120.479-20.559z" fill="#ebf2f7"/></svg>