<?xml version="1.0" encoding="UTF-8" standalone="no"?>
<svg
   xmlns:dc="http://purl.org/dc/elements/1.1/"
   xmlns:cc="http://creativecommons.org/ns#"
   xmlns:rdf="http://www.w3.org/1999/02/22-rdf-syntax-ns#"
   xmlns:svg="http://www.w3.org/2000/svg"
   xmlns="http://www.w3.org/2000/svg"
   xmlns:sodipodi="http://sodipodi.sourceforge.net/DTD/sodipodi-0.dtd"
   xmlns:inkscape="http://www.inkscape.org/namespaces/inkscape"
   version="1.1"
   id="Capa_1"
   x="0px"
   y="0px"
   width="94px"
   height="94px"
   viewBox="0 0 94 94"
   style="enable-background:new 0 0 94 94;"
   xml:space="preserve"
   sodipodi:docname="xing.svg"
   inkscape:version="1.1-dev (f9311a1, 2019-12-25)"><metadata
   id="metadata176"><rdf:RDF><cc:Work
       rdf:about=""><dc:format>image/svg+xml</dc:format><dc:type
         rdf:resource="http://purl.org/dc/dcmitype/StillImage" /></cc:Work></rdf:RDF></metadata><defs
   id="defs174" /><sodipodi:namedview
   inkscape:snap-page="false"
   pagecolor="#ffffff"
   bordercolor="#666666"
   inkscape:document-rotation="0"
   borderopacity="1"
   objecttolerance="10"
   gridtolerance="10"
   guidetolerance="10"
   inkscape:pageopacity="0"
   inkscape:pageshadow="2"
   inkscape:window-width="2070"
   inkscape:window-height="1095"
   id="namedview172"
   showgrid="false"
   inkscape:zoom="7.1489362"
   inkscape:cx="47"
   inkscape:cy="47"
   inkscape:window-x="72"
   inkscape:window-y="81"
   inkscape:window-maximized="0"
   inkscape:current-layer="g139" />
<g
   id="g139"
   style="fill:#000000">
	<path
   d="M89,0H5C2.238,0,0,2.239,0,5v84c0,2.761,2.238,5,5,5h84c2.762,0,5-2.239,5-5V5C94,2.239,91.762,0,89,0z M27.165,62.335   H16.143c-0.663,0-1.161-0.3-1.44-0.752c-0.29-0.469-0.307-1.082,0-1.69l11.711-20.667c0.014-0.022,0.014-0.038,0-0.063   L18.962,26.26c-0.311-0.614-0.354-1.22-0.064-1.69c0.282-0.457,0.84-0.689,1.504-0.689h11.021c1.691,0,2.521,1.089,3.07,2.066   c0,0,7.533,13.142,7.578,13.215c-0.447,0.786-11.899,21.043-11.899,21.043C29.607,61.223,28.813,62.335,27.165,62.335z    M79.286,11.192L54.882,54.344c-0.015,0.021-0.015,0.051,0,0.073l15.539,28.392c0.308,0.609,0.315,1.231,0.021,1.701   c-0.278,0.455-0.797,0.704-1.461,0.704h-11.01c-1.688,0-2.533-1.121-3.08-2.097c0,0-15.622-28.66-15.66-28.736   c0.78-1.383,24.527-43.494,24.527-43.494c0.592-1.063,1.305-2.099,2.949-2.099h11.137c0.664,0,1.186,0.251,1.465,0.703   C79.602,9.962,79.593,10.583,79.286,11.192z"
   id="path137"
   style="fill:#e0e0e0;fill-opacity:1" />
</g>
<g
   id="g141">
</g>
<g
   id="g143">
</g>
<g
   id="g145">
</g>
<g
   id="g147">
</g>
<g
   id="g149">
</g>
<g
   id="g151">
</g>
<g
   id="g153">
</g>
<g
   id="g155">
</g>
<g
   id="g157">
</g>
<g
   id="g159">
</g>
<g
   id="g161">
</g>
<g
   id="g163">
</g>
<g
   id="g165">
</g>
<g
   id="g167">
</g>
<g
   id="g169">
</g>
</svg>
