<svg xmlns="http://www.w3.org/2000/svg" width="94" height="94"><path d="M89 0H5a5 5 0 00-5 5v84a5 5 0 005 5h84a5 5 0 005-5V5a5 5 0 00-5-5zM27.165 62.335H16.143c-.663 0-1.161-.3-1.44-.752-.29-.469-.307-1.082 0-1.69l11.711-20.667c.014-.022.014-.038 0-.063L18.962 26.26c-.311-.614-.354-1.22-.064-1.69.282-.457.84-.689 1.504-.689h11.021c1.691 0 2.521 1.089 3.07 2.066 0 0 7.533 13.142 7.578 13.215-.447.786-11.899 21.043-11.899 21.043-.565 1.018-1.359 2.13-3.007 2.13zm52.121-51.143L54.882 54.344a.065.065 0 000 .073l15.539 28.392c.308.609.315 1.231.021 1.701-.278.455-.797.704-1.461.704h-11.01c-1.688 0-2.533-1.121-3.08-2.097 0 0-15.622-28.66-15.66-28.736l24.527-43.494c.592-1.063 1.305-2.099 2.949-2.099h11.137c.664 0 1.186.251 1.465.703.293.471.284 1.092-.023 1.701z" fill="#e0e0e0"/></svg>