<?xml version="1.0" encoding="UTF-8" standalone="no"?>
<svg
   xmlns:dc="http://purl.org/dc/elements/1.1/"
   xmlns:cc="http://creativecommons.org/ns#"
   xmlns:rdf="http://www.w3.org/1999/02/22-rdf-syntax-ns#"
   xmlns:svg="http://www.w3.org/2000/svg"
   xmlns="http://www.w3.org/2000/svg"
   xmlns:sodipodi="http://sodipodi.sourceforge.net/DTD/sodipodi-0.dtd"
   xmlns:inkscape="http://www.inkscape.org/namespaces/inkscape"
   inkscape:version="1.1-dev (f9311a1, 2019-12-25)"
   sodipodi:docname="droid.svg"
   id="svg914"
   version="1.1"
   fill="none"
   viewBox="0 0 135 40"
   height="40"
   width="135">
  <metadata
     id="metadata918">
    <rdf:RDF>
      <cc:Work
         rdf:about="">
        <dc:format>image/svg+xml</dc:format>
        <dc:type
           rdf:resource="http://purl.org/dc/dcmitype/StillImage" />
      </cc:Work>
    </rdf:RDF>
  </metadata>
  <sodipodi:namedview
     inkscape:current-layer="g837"
     inkscape:window-maximized="1"
     inkscape:window-y="23"
     inkscape:window-x="0"
     inkscape:cy="18.520056"
     inkscape:cx="80.593908"
     inkscape:zoom="6.3093525"
     showgrid="false"
     id="namedview916"
     inkscape:window-height="1395"
     inkscape:window-width="2560"
     inkscape:pageshadow="2"
     inkscape:pageopacity="0"
     guidetolerance="10"
     gridtolerance="10"
     objecttolerance="10"
     borderopacity="1"
     inkscape:document-rotation="0"
     bordercolor="#666666"
     pagecolor="#ffffff" />
  <g
     transform="translate(-2,-1)"
     id="g837"
     filter="url(#filter0_d)">
    <path
       inkscape:connector-curvature="0"
       id="path833"
       fill="white"
       d="M 132.197,41 H 6.729 C 4.1182,40.9939 2.00385,38.8778 2,36.267 V 5.726 C 2.00386,3.11633 4.11933,1.0022 6.729,1 H 132.197 C 134.803,1 137,3.12 137,5.726 V 36.267 C 137,38.872 134.803,41 132.197,41 Z" />
    <path
       inkscape:connector-curvature="0"
       id="path835"
       stroke-opacity="0.1"
       stroke="black"
       d="M 132.197,40.5 H 6.73016 C 4.39488,40.4946 2.50363,38.6019 2.5,36.2666 V 5.72639 C 2.50364,3.39264 4.39545,1.50208 6.72922,1.5 H 132.197 c 2.34,0 4.303,1.90657 4.303,4.226 v 30.541 c 0,2.3194 -1.964,4.233 -4.303,4.233 z" />
  </g>
  <path
     style="fill:url(#paint0_linear)"
     inkscape:connector-curvature="0"
     id="path839"
     fill="url(#paint0_linear)"
     d="M 10.4,7.5 C 10.1,7.8 10,8.3 10,8.9 V 31 c 0,0.6 0.2,1.1 0.5,1.4 L 10.6,32.5 23,20.1 v -0.2 z" />
  <path
     style="fill:url(#paint1_linear)"
     inkscape:connector-curvature="0"
     id="path841"
     fill="url(#paint1_linear)"
     d="m 27,24.3 -4.1,-4.1 v -0.3 l 4.1,-4.1 0.1,0.1 4.9,2.8 c 1.4,0.8 1.4,2.1 0,2.9 z" />
  <path
     style="fill:url(#paint2_linear)"
     inkscape:connector-curvature="0"
     id="path843"
     fill="url(#paint2_linear)"
     d="M 27.1,24.2 22.9,20 10.4,32.5 c 0.5,0.5 1.2,0.5 2.1,0.1 z" />
  <path
     style="fill:url(#paint3_linear)"
     inkscape:connector-curvature="0"
     id="path845"
     fill="url(#paint3_linear)"
     d="M 27.1,15.8 12.5,7.49999 c -0.9,-0.5 -1.6,-0.4 -2.1,0.1 L 22.9,20 Z" />
  <path
     inkscape:connector-curvature="0"
     id="path847"
     fill="black"
     d="m 27,24.1 -14.5,8.2 c -0.8,0.5 -1.5,0.4 -2,0 l -0.1,0.1 0.1,0.1 c 0.5,0.4 1.2,0.5 2,0 z"
     opacity="0.2" />
  <path
     inkscape:connector-curvature="0"
     id="path849"
     fill="black"
     d="m 27,24.1 5,-2.8 c 0.6,-0.4 1,-0.8 1,-1.3 0,0.5 -0.3,1 -1,1.4 l -4.9,2.8 z m -16.982,7.207 c 0.0404,0.418 0.1528,0.7638 0.382,0.993 h 0.0097 c 0.029,0.0354 0.0591,0.0688 0.0903,0.1 V 32.3 H 10.4097 C 10.2095,32.0548 10.0665,31.7114 10.018,31.307 Z m 0,0 C 10.0056,31.1778 10,31.0417 10,30.9 V 31 c 0,0.1056 0.0062,0.2081 0.018,0.307 z"
     clip-rule="evenodd"
     fill-rule="evenodd"
     opacity="0.12" />
  <path
     inkscape:connector-curvature="0"
     id="path851"
     fill="white"
     d="M 12.5,7.60003 32,18.7 c 0.6,0.4 1,0.8 1,1.3 0,-0.5 -0.3,-1 -1,-1.4 L 12.5,7.50003 c -1.4,-0.8 -2.5,-0.2 -2.5,1.4 V 9 c 0,-1.49997 1.1,-2.19997 2.5,-1.39997 z"
     opacity="0.25" />
  <path
     inkscape:connector-curvature="0"
     id="path853"
     fill="#111111"
     d="m 47.7,23.1 v 1.8 H 52 c -0.1,1 -0.5,1.8 -1,2.3 -0.6,0.6 -1.6,1.3 -3.3,1.3 -2.7,0 -4.7,-2.1 -4.7,-4.8 0,-2.7 2.1,-4.8 4.7,-4.8 1.4,0 2.5,0.6 3.3,1.3 l 1.3,-1.3 c -1.1,-1 -2.5,-1.8 -4.5,-1.8 -3.6,0 -6.7,3 -6.7,6.6 0,3.6 3.1,6.6 6.7,6.6 2,0 3.4,-0.6 4.6,-1.9 1.2,-1.2 1.6,-2.9 1.6,-4.2 v 0 c 0,-0.4 0,-0.8 -0.1,-1.1 z m 11.1,-1.3 c -2.4,0 -4.3,1.8 -4.3,4.3 0,2.4 1.9,4.3 4.3,4.3 2.4,0 4.3,-1.8 4.3,-4.3 0,-2.6 -1.9,-4.3 -4.3,-4.3 z m 5,4.3 c 0,-2.5 1.9,-4.3 4.3,-4.3 2.4,0 4.3,1.7 4.3,4.3 0,2.5 -1.9,4.3 -4.3,4.3 -2.4,0 -4.3,-1.9 -4.3,-4.3 z M 65.7,26 c 0,1.5 1.1,2.6 2.4,2.6 1.3,0 2.4,-1.1 2.4,-2.6 0,-1.6 -1.1,-2.6 -2.4,-2.6 -1.3,0 -2.4,1.1 -2.4,2.6 z m -9.3,0 c 0,1.5 1.1,2.6 2.4,2.6 1.3,0 2.4,-1.1 2.4,-2.6 0,-1.6 -1.1,-2.6 -2.4,-2.6 -1.3,0 -2.4,1.1 -2.4,2.6 z m 33.1,-4.2 c 2.2,0 3.2,1.7 3.6,2.7 l 0.2,0.5 -5.7,2.4 c 0.5,0.9 1.1,1.3 2.1,1.3 1,0 1.6,-0.5 2.1,-1.2 l 1.4,1 c -0.4,0.7 -1.6,1.9 -3.5,1.9 -2.4,0 -4.2,-1.9 -4.2,-4.3 0,-2.6 1.8,-4.3 4,-4.3 z m -2.2,4.1 c 0,-1.6 1.3,-2.5 2.2,-2.5 0.7,0 1.4,0.4 1.6,0.9 z M 84.5,30 H 82.6 V 17.5 h 1.9 z m -4.9,-7.3 c -0.5,-0.5 -1.3,-1 -2.3,-1 -2.1,0 -4.1,1.9 -4.1,4.3 0,2.4 1.9,4.2 4.1,4.2 1,0 1.8,-0.5 2.2,-1 h 0.1 v 0.6 c 0,1.6 -0.9,2.5 -2.3,2.5 -1.1,0 -1.9,-0.8 -2.1,-1.5 l -1.6,0.7 c 0.5,1.1 1.7,2.5 3.8,2.5 2.2,0 4,-1.3 4,-4.4 V 22 H 79.6 Z M 75,26 c 0,1.5 1.1,2.6 2.4,2.6 1.3,0 2.3,-1.1 2.3,-2.6 0,-1.5 -1,-2.6 -2.3,-2.6 -1.3,0 -2.4,1.1 -2.4,2.6 z m 26.8,-8.5 H 97.3 V 30 h 1.9 v -4.7 h 2.6 c 2.1,0 4.1,-1.5 4.1,-3.9 0,-2.4 -2,-3.9 -4.1,-3.9 z m -2.6,6 h 2.7 c 1.3,0 2.1,-1.1 2.2,-2.2 0,-0.9 -0.8,-2.1 -2.2,-2.1 h -2.7 z m 14.2,-1.8 c -1.4,0 -2.8,0.6 -3.3,1.9 l 1.7,0.7 c 0.4,-0.7 1,-0.9 1.7,-0.9 1,0 1.9,0.6 2,1.6 v 0.1 c -0.3,-0.2 -1.1,-0.5 -1.9,-0.5 -1.8,0 -3.6,1 -3.6,2.8 0,1.7 1.5,2.8 3.1,2.8 1.3,0 1.9,-0.6 2.4,-1.2 h 0.1 v 1 h 1.8 v -4.8 c -0.2,-2.2 -1.9,-3.5 -4,-3.5 z m -1.7,5.8 c 0,0.8 0.9,1.1 1.5,1.1 1,0 2,-0.8 2.2,-2 -0.051,-0.0202 -0.1,-0.0404 -0.149,-0.0604 -0.436,-0.178 -0.832,-0.3396 -1.551,-0.3396 -0.9,0 -2,0.3 -2,1.3 z m 12,-5.5 -2.1,5.4 h -0.1 L 119.3,22 h -2 l 3.3,7.6 -1.9,4.2 h 1.9 L 125.7,22 Z m -14.9,8 h -1.9 V 17.5 h 1.9 z"
     clip-rule="evenodd"
     fill-rule="evenodd" />
  <path
     inkscape:connector-curvature="0"
     id="path855"
     fill="#111111"
     d="m 41.9,12.7 c 0.3,0.3 0.7,0.4 1.1,0.4 0.6,0 1,-0.1 1.4,-0.5 0.3,-0.3 0.5,-0.8 0.5,-1.5 V 7 h -0.8 v 4.1 c 0,0.4 -0.1,0.7 -0.3,0.9 -0.2,0.2 -0.4,0.3 -0.8,0.3 -0.6,0 -0.9,-0.3 -1.1,-0.9 l -0.7,0.3 c 0.2,0.4 0.4,0.8 0.7,1 z m 5.1,-5 h 2.7 V 7 h -3.5 v 6 h 3.5 V 12.2 H 47 v -1.9 h 2.5 V 9.6 H 47 Z M 53,13 H 52.2 V 7.7 H 50.5 V 7 h 4.1 V 7.7 H 53 Z m 5.5,-5.3 -3.2,4.5 V 13 h 4.1 V 12.3 H 56.2 L 59.4,7.8 V 7 h -4 V 7.7 Z M 62.4,13 H 61.7 V 7.7 H 60 V 7 h 4.1 v 0.7 h -1.7 z m 4.8,-6 v 6 h 2.3 c 0.5,0 0.9,-0.2 1.3,-0.4 0.3,-0.3 0.5,-0.7 0.5,-1.2 C 71.3,11 71.2,10.7 71,10.5 70.8,10.3 70.6,10.1 70.3,10 70.6,9.9 70.8,9.7 70.9,9.5 70.9207,9.4377 70.9415,9.3796 70.9614,9.3241 l 1e-4,-3e-4 1e-4,-2e-4 v -1e-4 l 10e-5,-10e-5 C 71.0373,9.1122 71.1,8.93738 71.1,8.7 71.1,8.2 70.9,7.8 70.6,7.5 70.3,7.2 69.9,7 69.4,7 Z M 68,9.6 h 1.4 c 0.3,0 0.5,-0.1 0.7,-0.3 C 70.2999,9.1 70.4,8.9 70.4,8.7 70.4,8.5 70.2999,8.2 70.1,8 69.9,7.8 69.7,7.7 69.4,7.7 H 68 Z m 1.6,2.7 H 68 v -2 h 1.6 c 0.3,0 0.5,0.1 0.6999,0.3 0.2001,0.2 0.3001,0.5 0.3001,0.7 0,0.3 -0.1,0.5 -0.3001,0.7 C 70.1,12.2 69.9,12.3 69.6,12.3 Z m 6.3,-4.6 h -2.7 v 1.9 h 2.5 v 0.7 h -2.5 v 1.9 h 2.7 V 13 H 72.4 V 7 h 3.5 z m 2,-0.7 h -0.8 v 6 h 0.8 z"
     clip-rule="evenodd"
     fill-rule="evenodd" />
  <path
     inkscape:connector-curvature="0"
     id="path857"
     fill="white"
     d="m 41.9,12.7 0.0707,-0.0707 -0.007,-0.007 -0.0083,-0.0055 z m 2.5,-0.1 0.0707,0.0707 z M 44.9,7 H 45 V 6.9 H 44.9 Z M 44.1,7 V 6.9 H 44 V 7 Z m -2.2,4.4 0.0948,-0.0316 -0.0343,-0.1031 -0.0999,0.0428 z m -0.7,0.3 -0.0394,-0.0919 -0.0975,0.0418 0.0474,0.0948 z m 8.5,-4 v 0.1 h 0.1 V 7.7 Z M 47,7.7 V 7.6 H 46.9 V 7.7 Z M 49.7,7 h 0.1 V 6.9 H 49.7 Z M 46.2,7 V 6.9 H 46.1 V 7 Z m 0,6 h -0.1 v 0.1 h 0.1 z m 3.5,0 v 0.1 h 0.1 V 13 Z m 0,-0.8 h 0.1 v -0.1 h -0.1 z m -2.7,0 h -0.1 v 0.1 H 47 Z m 0,-1.9 v -0.1 h -0.1 v 0.1 z m 2.5,0 v 0.1 h 0.1 v -0.1 z m 0,-0.7 h 0.1 V 9.5 H 49.5 Z M 47,9.6 H 46.9 V 9.7 H 47 Z m 5.2,3.4 h -0.1 v 0.1 h 0.1 z m 0.8,0 v 0.1 h 0.1 V 13 Z M 52.2,7.7 h 0.1 V 7.6 h -0.1 z m -1.7,0 h -0.1 v 0.1 h 0.1 z M 50.5,7 V 6.9 H 50.4 V 7 Z m 4.1,0 h 0.1 V 6.9 h -0.1 z m 0,0.7 v 0.1 h 0.1 V 7.7 Z M 53,7.7 V 7.6 H 52.9 V 7.7 Z M 55.3,12.2 55.2185,12.142 55.2,12.1681 V 12.2 Z M 58.5,7.7 58.5814,7.75795 58.6938,7.6 H 58.5 Z M 55.3,13 h -0.1 v 0.1 h 0.1 z m 4.1,0 v 0.1 h 0.1 V 13 Z m 0,-0.7 h 0.1 v -0.1 h -0.1 z m -3.2,0 -0.0815,-0.058 -0.1124,0.158 H 56.2 Z M 59.4,7.8 59.4814,7.85795 59.5,7.83193 V 7.8 Z m 0,-0.8 h 0.1 V 6.9 h -0.1 z m -4,0 V 6.9 H 55.3 V 7 Z m 0,0.7 h -0.1 v 0.1 h 0.1 z m 6.3,5.3 h -0.1 v 0.1 h 0.1 z m 0.7,0 v 0.1 h 0.1 V 13 Z M 61.7,7.7 h 0.1 V 7.6 H 61.7 Z M 60,7.7 H 59.9 V 7.8 H 60 Z M 60,7 V 6.9 H 59.9 V 7 Z m 4.1,0 h 0.1 V 6.9 h -0.1 z m 0,0.7 v 0.1 h 0.1 V 7.7 Z m -1.7,0 V 7.6 h -0.1001 v 0.1 z m 4.8,5.3 h -0.1 v 0.1 h 0.1 z m 0,-6 V 6.9 H 67.1 V 7 Z m 3.6,5.6 0.0447,0.0894 0.0145,-0.0072 0.0115,-0.0115 z m 0.2,-2.1 -0.0708,0.0707 v 0 z M 70.3,10 70.2683,9.9051 69.9837,10 l 0.2846,0.0949 z m 0.6,-0.5 0.0894,0.0447 0.0032,-0.0063 0.0022,-0.0068 z m 0.0614,-0.1759 0.0941,0.0337 3e-4,-6e-4 z m 1e-4,-3e-4 -0.0937,-0.0348 -6e-4,0.0017 z m 1e-4,-2e-4 0.0937,0.0348 5e-4,-0.0012 z m 0,-1e-4 -0.0937,-0.0349 -5e-4,0.0013 z m 10e-5,-10e-5 0.0937,0.0349 4e-4,-0.0012 z M 70.6,7.5 70.5292,7.57071 v 0 z M 68,9.6 H 67.9 V 9.7 H 68 Z m 2.1,-0.3 0.0707,0.0707 v 0 z m 0,-1.3 0.0707,-0.07071 v 0 z M 68,7.7 V 7.6 h -0.1 v 0.1 z m 0,4.6 h -0.1 v 0.1 H 68 Z m 0,-2 v -0.1 h -0.1 v 0.1 z m 2.2999,0.3 -0.0707,0.0707 v 0 z m 0,1.4 -0.0707,-0.0707 z M 73.2,7.7 V 7.6 h -0.1 v 0.1 z m 2.7,0 V 7.8 H 76 V 7.7 Z m -2.7,1.9 h -0.1 v 0.1 h 0.1 z m 2.5,0 h 0.0999 V 9.5 H 75.7 Z m 0,0.7 v 0.1 h 0.0999 v -0.1 z m -2.5,0 v -0.1 h -0.1 v 0.1 z m 0,1.9 h -0.1 v 0.1 h 0.1 z m 2.7,0 H 76 v -0.1 h -0.1 z m 0,0.8 v 0.1 H 76 V 13 Z m -3.5,0 h -0.1 v 0.1 h 0.1 z m 0,-6 V 6.9 H 72.3 V 7 Z m 3.5,0 H 76 V 6.9 h -0.1 z m 1.2,0 V 6.9 H 77 V 7 Z m 0.8,0 H 78 V 6.9 h -0.1 z m -0.8,6 H 77 v 0.1 h 0.1 z m 0.8,0 v 0.1 H 78 V 13 Z M 43,13 c -0.3846,0 -0.7547,-0.0961 -1.0293,-0.3707 l -0.1415,0.1414 C 42.1546,13.0961 42.5845,13.2 43,13.2 Z m 1.3292,-0.4707 c -0.1903,0.1903 -0.3773,0.3063 -0.5859,0.3758 C 43.533,12.9753 43.2952,13 43,13 v 0.2 c 0.3047,0 0.5669,-0.0253 0.8066,-0.1051 0.2414,-0.0805 0.4544,-0.2145 0.6641,-0.4242 z M 44.8,11.1 c 0,0.6821 -0.1948,1.1534 -0.4708,1.4293 l 0.1415,0.1414 C 44.7947,12.3466 45,11.8179 45,11.1 Z m 0,-4.1 v 4.1 H 45 V 7 Z m -0.7,0.1 h 0.8 V 6.9 h -0.8 z m 0.1,4 V 7 H 44 v 4.1 z m -0.3293,0.9707 C 44.096,11.8453 44.2,11.5154 44.2,11.1 H 44 c 0,0.3846 -0.0961,0.6547 -0.2708,0.8293 z M 43,12.4 c 0.208,0 0.3716,-0.026 0.5121,-0.0822 0.1413,-0.0565 0.2523,-0.1408 0.3586,-0.2471 L 43.7292,11.9293 C 43.6355,12.023 43.5465,12.0887 43.4378,12.1322 43.3283,12.176 43.1919,12.2 43,12.2 Z m -1.1949,-0.9684 c 0.1026,0.3079 0.2351,0.5524 0.4298,0.7193 C 42.4321,12.32 42.6822,12.4 43,12.4 v -0.2 c -0.2823,0 -0.4822,-0.07 -0.635,-0.2009 -0.1553,-0.1331 -0.2728,-0.3386 -0.3702,-0.6307 z m -0.5658,0.3603 0.7,-0.3 -0.0787,-0.1838 -0.7,0.3 z m 0.7161,0.8249 c -0.1336,-0.0891 -0.2497,-0.2262 -0.3588,-0.3959 -0.1091,-0.1696 -0.2067,-0.3646 -0.3072,-0.5656 l -0.1789,0.0894 c 0.0995,0.199 0.2019,0.404 0.3178,0.5844 0.1159,0.1803 0.2498,0.3432 0.4162,0.4541 z M 49.7,7.6 H 47 v 0.2 h 2.7 z M 49.6,7 v 0.7 h 0.2 V 7 Z m -3.4,0.1 h 3.5 V 6.9 H 46.2 Z M 46.3,13 V 7 h -0.2 v 6 z m 3.4,-0.1 h -3.5 v 0.2 h 3.5 z M 49.6,12.2 V 13 h 0.2 V 12.2 Z M 47,12.3 h 2.7 V 12.1 H 47 Z m -0.1,-2 v 1.9 h 0.2 v -1.9 z m 2.6,-0.1 H 47 v 0.2 h 2.5 z M 49.4,9.6 v 0.7 h 0.2 V 9.6 Z M 47,9.7 h 2.5 V 9.5 H 47 Z m -0.1,-2 v 1.9 h 0.2 V 7.7 Z m 5.3,5.4 H 53 V 12.9 H 52.2 Z M 52.1,7.7 V 13 h 0.2 V 7.7 Z m -1.6,0.1 h 1.7 V 7.6 H 50.5 Z M 50.4,7 v 0.7 h 0.2 V 7 Z m 4.2,-0.1 h -4.1 v 0.2 h 4.1 z m 0.1,0.8 V 7 H 54.5 V 7.7 Z M 53,7.8 h 1.6 V 7.6 H 53 Z M 53.1,13 V 7.7 H 52.9 V 13 Z m 2.2814,-0.742 3.2,-4.50005 -0.1629,-0.1159 -3.2,4.49995 z M 55.4,13 V 12.2 H 55.2 V 13 Z m 4,-0.1 h -4.1 v 0.2 h 4.1 z M 59.3,12.3 V 13 h 0.2 v -0.7 z m -3.1,0.1 h 3.2 v -0.2 h -3.2 z m 3.1185,-4.65795 -3.2,4.49995 0.1629,0.116 3.2,-4.50005 z M 59.3,7 v 0.8 h 0.2 V 7 Z m -3.9,0.1 h 4 V 6.9 h -4 z m 0.1,0.6 V 7 h -0.2 v 0.7 z m 3,-0.1 h -3.1 v 0.2 h 3.1 z m 3.2,5.5 h 0.7 V 12.9 H 61.7 Z M 61.6,7.7 V 13 h 0.2 V 7.7 Z M 60,7.8 h 1.7 V 7.6 H 60 Z M 59.9,7 v 0.7 h 0.2 V 7 Z M 64.1,6.9 H 60 v 0.2 h 4.1 z m 0.1,0.8 V 7 H 64 v 0.7 z m -1.8,0.1 h 1.7 V 7.6 H 62.4 Z M 62.5,13 V 7.7 H 62.2999 V 13 Z m 4.8,0 V 7 h -0.2 v 6 z m 2.2,-0.1 h -2.3 v 0.2 h 2.3 z m 1.2552,-0.3894 C 70.353,12.7117 69.9731,12.9 69.5,12.9 v 0.2 c 0.5268,0 0.9469,-0.2117 1.3447,-0.4106 z M 71.2,11.4 c 0,0.4707 -0.1875,0.846 -0.4708,1.1293 l 0.1415,0.1414 C 71.1874,12.354 71.4,11.9293 71.4,11.4 Z M 70.9292,10.5707 C 71.1039,10.7453 71.2,11.0154 71.2,11.4 h 0.2 c 0,-0.4154 -0.104,-0.7453 -0.3293,-0.9707 z m -0.6609,-0.4758 c 0.2745,0.0915 0.4592,0.274 0.6609,0.4758 l 0.1415,-0.1414 C 70.8724,10.2311 70.6571,10.0136 70.3316,9.9051 Z m 0.5422,-0.6396 c -0.0884,0.1768 -0.2679,0.3584 -0.5422,0.4498 l 0.0633,0.1898 c 0.3257,-0.1086 0.5462,-0.327 0.6578,-0.5502 z m 0.0568,-0.1649 c -0.0199,0.0554 -0.041,0.1144 -0.0622,0.178 l 0.1897,0.0632 c 0.0204,-0.0611 0.0408,-0.1181 0.0607,-0.1738 z m -1e-4,3e-4 -2e-4,3e-4 0.1888,0.0662 10e-5,-3e-4 z m 7e-4,-0.0019 -1e-4,2e-4 0.1875,0.0696 v -2e-4 z m -5e-4,0.0011 V 9.29 l 0.1884,0.0672 v -10e-5 z m 5e-4,-0.0014 v 10e-5 l 0.1875,0.0697 v 0 z M 71,8.7 c 0,0.21797 -0.0565,0.3777 -0.1325,0.5897 l 0.1883,0.0674 C 71.1312,9.1466 71.2,8.9568 71.2,8.7 Z M 70.5292,7.57071 C 70.8125,7.85402 71,8.2293 71,8.7 h 0.2 C 71.2,8.1707 70.9874,7.74598 70.6707,7.42929 Z M 69.4,7.1 c 0.4707,0 0.8459,0.18741 1.1292,0.47071 L 70.6707,7.42929 C 70.354,7.11259 69.9293,6.9 69.4,6.9 Z m -2.2,0 h 2.2 V 6.9 h -2.2 z m 2.2,2.4 H 68 v 0.2 h 1.4 z M 70.0292,9.2293 C 69.9351,9.3234 69.845,9.39 69.7468,9.4336 69.6491,9.4771 69.5383,9.5 69.4,9.5 v 0.2 c 0.1616,0 0.3008,-0.0271 0.4281,-0.0836 C 69.9549,9.56 70.0648,9.4766 70.1707,9.3707 Z M 70.2999,8.7 c 0,0.16412 -0.0816,0.3402 -0.2707,0.5293 l 0.1415,0.1414 C 70.3816,9.1598 70.5,8.93588 70.5,8.7 Z M 70.0292,8.07071 C 70.2093,8.25073 70.2999,8.52474 70.2999,8.7 H 70.5 C 70.5,8.47526 70.3906,8.14927 70.1707,7.92929 Z M 69.4,7.8 c 0.1383,0 0.2491,0.02294 0.3468,0.06638 0.0982,0.04364 0.1883,0.11023 0.2824,0.20433 L 70.1707,7.92929 C 70.0648,7.82339 69.9549,7.73998 69.8281,7.68362 69.7008,7.62706 69.5616,7.6 69.4,7.6 Z m -1.4,0 h 1.4 V 7.6 H 68 Z m 0.1,1.8 V 7.7 H 67.9 V 9.6 Z M 68,12.4 h 1.6 V 12.2 H 68 Z m -0.1,-2.1 v 2 h 0.2 v -2 z m 1.7,-0.1 H 68 v 0.2 h 1.6 z m 0.7707,0.3293 C 70.2648,10.4234 70.1549,10.34 70.0281,10.2836 69.9008,10.2271 69.7616,10.2 69.6,10.2 v 0.2 c 0.1383,0 0.2491,0.0229 0.3468,0.0664 0.0982,0.0436 0.1883,0.1102 0.2824,0.2043 z M 70.7,11.3 c 0,-0.2247 -0.1094,-0.5507 -0.3293,-0.7707 l -0.1415,0.1414 c 0.1801,0.18 0.2708,0.454 0.2708,0.6293 z m -0.3293,0.7707 C 70.4766,11.9648 70.56,11.8549 70.6163,11.7281 70.6729,11.6009 70.7,11.4617 70.7,11.3 h -0.2 c 0,0.1383 -0.023,0.2491 -0.0664,0.3469 -0.0437,0.0982 -0.1103,0.1883 -0.2044,0.2824 z M 69.6,12.4 c 0.1616,0 0.3008,-0.0271 0.4281,-0.0836 0.1268,-0.0564 0.2367,-0.1398 0.3426,-0.2457 L 70.2292,11.9293 C 70.1351,12.0234 70.045,12.09 69.9468,12.1336 69.8491,12.1771 69.7383,12.2 69.6,12.2 Z m 3.6,-4.6 h 2.7 V 7.6 h -2.7 z m 0.0999,1.8 V 7.7 H 73.1 V 9.6 Z M 75.7,9.5 h -2.5 v 0.2 h 2.5 z m 0.0999,0.8 V 9.6 H 75.6 v 0.7 z M 73.2,10.4 h 2.5 v -0.2 h -2.5 z m 0.0999,1.8 V 10.3 H 73.1 v 1.9 z M 75.9,12.1 h -2.7 v 0.2 h 2.7 z M 76,13 V 12.2 H 75.8 V 13 Z m -3.6,0.1 h 3.5 V 12.9 H 72.4 Z M 72.3,7 v 6 h 0.2 V 7 Z m 3.6,-0.1 h -3.5 v 0.2 h 3.5 z M 76,7.7 V 7 h -0.2 v 0.7 z m 1.1,-0.6 h 0.8 V 6.9 H 77.1 Z M 77.2,13 V 7 H 77 v 6 z m 0.7,-0.1 h -0.8 v 0.2 h 0.8 z M 77.8,7 v 6 H 78 V 7 Z" />
  <defs
     id="defs912">
    <filter
       color-interpolation-filters="sRGB"
       filterUnits="userSpaceOnUse"
       height="44"
       width="139"
       y="0"
       x="0"
       id="filter0_d">
      <feFlood
         id="feFlood859"
         result="BackgroundImageFix"
         flood-opacity="0" />
      <feColorMatrix
         id="feColorMatrix861"
         values="0 0 0 0 0 0 0 0 0 0 0 0 0 0 0 0 0 0 127 0"
         type="matrix"
         in="SourceAlpha" />
      <feOffset
         id="feOffset863"
         dy="1" />
      <feGaussianBlur
         id="feGaussianBlur865"
         stdDeviation="1" />
      <feColorMatrix
         id="feColorMatrix867"
         values="0 0 0 0 0 0 0 0 0 0 0 0 0 0 0 0 0 0 0.05 0"
         type="matrix" />
      <feBlend
         id="feBlend869"
         result="effect1_dropShadow"
         in2="BackgroundImageFix"
         mode="normal" />
      <feBlend
         id="feBlend871"
         result="shape"
         in2="effect1_dropShadow"
         in="SourceGraphic"
         mode="normal" />
    </filter>
    <linearGradient
       gradientTransform="translate(-2,-1)"
       gradientUnits="userSpaceOnUse"
       y2="-1.05549"
       x2="-0.431398"
       y1="-6.4274998"
       x1="19.436701"
       id="paint0_linear">
      <stop
         id="stop874"
         stop-color="#00A0FF" />
      <stop
         id="stop876"
         stop-color="#00A1FF"
         offset="0.007" />
      <stop
         id="stop878"
         stop-color="#00BEFF"
         offset="0.26" />
      <stop
         id="stop880"
         stop-color="#00D2FF"
         offset="0.512" />
      <stop
         id="stop882"
         stop-color="#00DFFF"
         offset="0.76" />
      <stop
         id="stop884"
         stop-color="#00E3FF"
         offset="1" />
    </linearGradient>
    <linearGradient
       gradientTransform="translate(-2,-1)"
       gradientUnits="userSpaceOnUse"
       y2="10.8692"
       x2="11.637"
       y1="10.8692"
       x1="35.834"
       id="paint1_linear">
      <stop
         id="stop887"
         stop-color="#FFE000" />
      <stop
         id="stop889"
         stop-color="#FFBD00"
         offset="0.409" />
      <stop
         id="stop891"
         stop-color="#FFA500"
         offset="0.775" />
      <stop
         id="stop893"
         stop-color="#FF9C00"
         offset="1" />
    </linearGradient>
    <linearGradient
       gradientTransform="translate(-2,-1)"
       gradientUnits="userSpaceOnUse"
       y2="41.318001"
       x2="-3.88221"
       y1="14.514"
       x1="12.083"
       id="paint2_linear">
      <stop
         id="stop896"
         stop-color="#FF3A44" />
      <stop
         id="stop898"
         stop-color="#C31162"
         offset="1" />
    </linearGradient>
    <linearGradient
       gradientTransform="translate(-2,-1)"
       gradientUnits="userSpaceOnUse"
       y2="17.0658"
       x2="9.7553501"
       y1="5.0795298"
       x1="2.6821001"
       id="paint3_linear">
      <stop
         id="stop901"
         stop-color="#32A071" />
      <stop
         id="stop903"
         stop-color="#2DA771"
         offset="0.069" />
      <stop
         id="stop905"
         stop-color="#15CF74"
         offset="0.476" />
      <stop
         id="stop907"
         stop-color="#06E775"
         offset="0.801" />
      <stop
         id="stop909"
         stop-color="#00F076"
         offset="1" />
    </linearGradient>
  </defs>
</svg>
