<svg width="139" height="44" fill="none" xmlns="http://www.w3.org/2000/svg"><g filter="url(#filter0_d)"><path d="M132.197 41H6.729A4.74 4.74 0 012 36.267V5.726A4.733 4.733 0 016.729 1h125.468C134.803 1 137 3.12 137 5.726v30.541c0 2.605-2.197 4.733-4.803 4.733z" fill="#fff"/><path d="M132.197 40.5H6.73a4.24 4.24 0 01-4.23-4.233V5.727A4.233 4.233 0 016.73 1.5h125.467c2.34 0 4.303 1.907 4.303 4.226v30.541c0 2.32-1.964 4.233-4.303 4.233z" stroke="#000" stroke-opacity=".1"/></g><path fill-rule="evenodd" clip-rule="evenodd" d="M30.235 7.217c.166 1.509-.432 2.996-1.306 4.089-.912 1.076-2.371 1.898-3.792 1.793-.186-1.452.534-2.996 1.34-3.938.91-1.069 2.493-1.888 3.758-1.944zm4.652 8.704c-.159.095-2.787 1.663-2.758 4.862.033 3.864 3.379 5.14 3.42 5.153-.02.09-.524 1.844-1.78 3.623-1.047 1.568-2.145 3.1-3.89 3.127-.828.02-1.388-.22-1.971-.467-.609-.26-1.243-.529-2.235-.529-1.051 0-1.714.278-2.352.547-.553.232-1.087.457-1.841.488-1.661.062-2.93-1.672-4.016-3.225-2.171-3.171-3.861-8.936-1.595-12.859 1.098-1.924 3.1-3.163 5.24-3.196.942-.02 1.846.344 2.638.662.606.244 1.147.461 1.59.461.389 0 .915-.209 1.527-.452.965-.383 2.146-.852 3.35-.725.823.024 3.165.325 4.676 2.528l-.003.002zM55.68 32.502H53.41l-1.244-3.908h-4.324l-1.185 3.908h-2.211l4.284-13.307h2.646l4.305 13.307zm-5.014-9.023l1.125 3.475h-3.573l1.105-3.475c.222-.833.432-1.67.632-2.508h.04c.329 1.317.552 2.153.67 2.508zm16.03 4.107c0 1.633-.44 2.922-1.322 3.869-.79.844-1.771 1.264-2.942 1.264-1.264 0-2.172-.453-2.725-1.361h-.04v5.055h-2.132V26.066c0-1.027-.027-2.08-.08-3.16h1.876l.119 1.521h.04c.71-1.146 1.79-1.719 3.238-1.719 1.132 0 2.077.447 2.833 1.343.756.896 1.136 2.074 1.136 3.535zm-2.803-2.231c.422.606.632 1.375.632 2.31 0 1.014-.225 1.829-.672 2.448-.447.619-1.072.928-1.875.928-.684 0-1.24-.24-1.668-.721-.428-.481-.642-1.069-.642-1.767v-1.6c0-.171.033-.387.099-.651a2.42 2.42 0 01.839-1.372 2.212 2.212 0 011.43-.523c.777 0 1.396.315 1.857.948zm13.842 2.231c0 1.633-.441 2.922-1.324 3.869-.79.844-1.77 1.264-2.941 1.264-1.264 0-2.172-.453-2.725-1.361h-.04v5.055h-2.131V26.066c0-1.027-.027-2.08-.08-3.16h1.876l.119 1.521h.04c.71-1.146 1.79-1.719 3.239-1.719 1.13 0 2.076.447 2.834 1.343.754.896 1.133 2.074 1.133 3.535zm-2.805-2.231c.422.606.633 1.375.633 2.31 0 1.014-.225 1.829-.672 2.448-.447.619-1.072.928-1.875.928-.686 0-1.242-.241-1.67-.721-.427-.481-.641-1.069-.641-1.767v-1.6c0-.171.034-.387.099-.651a2.417 2.417 0 01.839-1.372 2.214 2.214 0 011.432-.523c.777 0 1.394.315 1.855.948zm15.145 3.416c0 1.131-.395 2.053-1.182 2.764-.867.777-2.076 1.164-3.625 1.164-1.432 0-2.582-.275-3.45-.828l.495-1.777c.934.566 1.96.85 3.08.85.805 0 1.43-.182 1.877-.545.447-.361.672-.848.672-1.453 0-.541-.186-.996-.553-1.365-.37-.369-.98-.711-1.836-1.028-2.33-.87-3.496-2.142-3.496-3.816 0-1.094.408-1.991 1.225-2.69.817-.699 1.902-1.048 3.258-1.048 1.21 0 2.219.211 3.02.632l-.532 1.738c-.75-.408-1.6-.612-2.547-.612-.75 0-1.336.185-1.758.553a1.58 1.58 0 00-.533 1.204c0 .527.205.961.613 1.303.355.316 1 .658 1.934 1.027 1.146.461 1.988 1 2.527 1.619.542.617.81 1.387.81 2.308zm4.697-4.265h2.35v-1.602h-2.35v-2.389l-2.092.632v1.757h-1.402v1.6h1.402v4.838c0 1.211.236 2.072.71 2.586.474.514 1.132.77 1.976.77.683 0 1.236-.078 1.658-.236l-.06-1.619c-.251.067-.565.1-.948.1-.828 0-1.244-.593-1.244-1.777v-4.66zm12.954 3.119c0 1.475-.422 2.686-1.264 3.633-.881.975-2.053 1.461-3.514 1.461-1.41 0-2.531-.467-3.367-1.4-.836-.936-1.254-2.113-1.254-3.535 0-1.486.432-2.705 1.293-3.652.863-.947 2.025-1.422 3.486-1.422 1.408 0 2.539.468 3.395 1.402.816.908 1.225 2.079 1.225 3.513zm-2.783-2.207c.381.632.572 1.392.572 2.277 0 .884-.198 1.651-.591 2.296-.461.777-1.1 1.168-1.916 1.168-.831 0-1.475-.382-1.936-1.148-.381-.632-.572-1.392-.572-2.277 0-.911.191-1.683.572-2.316.447-.765 1.1-1.148 1.955-1.148.83 0 1.469.382 1.916 1.148zm9.712-.636a3.592 3.592 0 00-.67-.06c-.752 0-1.33.283-1.738.85-.355.5-.533 1.133-.533 1.896v5.034h-2.133l.02-6.574c0-1.105-.025-2.113-.078-3.021h1.855l.08 1.836h.059c.223-.631.578-1.138 1.066-1.52a2.573 2.573 0 011.539-.514c.197 0 .375.014.533.039v2.034zm9.457 3.436c.053-.263.08-.585.08-.968 0-1.197-.283-2.204-.848-3.019-.711-1.026-1.758-1.54-3.139-1.54-1.408 0-2.527.514-3.357 1.54-.789.961-1.184 2.165-1.184 3.613 0 1.473.423 2.649 1.273 3.524.848.874 2.016 1.312 3.504 1.312 1.237 0 2.311-.197 3.219-.592l-.336-1.48c-.777.303-1.639.453-2.586.453-.856 0-1.555-.223-2.094-.67-.592-.5-.903-1.225-.928-2.173h6.396zm-1.953-1.521c.012-.631-.127-1.178-.416-1.639-.367-.592-.934-.889-1.697-.889-.697 0-1.264.29-1.697.869-.355.461-.566 1.014-.633 1.658h4.443v.001zM45.712 14.432h3.715v-.883H46.76V7.894h-1.048v6.538zm8.653 0h-.941l-.077-.543h-.03c-.322.433-.781.65-1.376.65-.446 0-.806-.143-1.077-.427a1.338 1.338 0 01-.368-.96c0-.576.24-1.015.723-1.319.48-.304 1.159-.453 2.032-.446V11.3c0-.621-.326-.931-.978-.931-.465 0-.875.117-1.23.349l-.213-.69c.438-.271.979-.407 1.617-.407 1.233 0 1.85.65 1.85 1.95v1.736a7.26 7.26 0 00.068 1.125zm-1.087-2.347v.727a.889.889 0 01-.38.742 1.061 1.061 0 01-.642.218.73.73 0 01-.511-.184c-.135-.123-.202-.307-.202-.553 0-.653.578-.97 1.735-.95zm7.042 2.347h-.931l-.05-.757h-.028c-.297.576-.802.864-1.513.864-.57 0-1.041-.223-1.416-.669-.375-.446-.562-1.025-.562-1.736 0-.763.203-1.381.61-1.853.395-.44.88-.66 1.455-.66.634 0 1.077.213 1.329.64h.02V7.554h1.048v5.607c0 .459.012.882.038 1.271zm-1.086-2.775v.786c0 .336-.101.624-.302.863a1.008 1.008 0 01-.828.388c-.383 0-.688-.155-.915-.465-.215-.291-.322-.669-.322-1.135 0-.485.112-.882.336-1.193.225-.311.53-.466.92-.466.259-.005.509.086.702.257.278.241.43.597.409.965zm6.79.195c0 .188-.013.346-.038.475h-3.143c.013.466.164.821.455 1.067.266.22.608.33 1.028.33.466 0 .89-.074 1.27-.223l.165.728c-.446.194-.973.291-1.581.291-.73 0-1.305-.215-1.722-.645-.417-.43-.625-1.007-.625-1.731 0-.711.193-1.303.582-1.775.407-.504.956-.756 1.648-.756.679 0 1.193.252 1.542.756.28.4.42.894.42 1.483zm-1.202-1.077c.146.242.217.522.203.805h-2.182c.025-.295.132-.578.31-.815a.997.997 0 01.835-.427c.375 0 .652.146.834.437zm6.819 3.657h-1.048v-2.7c0-.832-.316-1.248-.95-1.248a.946.946 0 00-.757.343 1.217 1.217 0 00-.291.808v2.796h-1.048v-3.366a26.4 26.4 0 00-.038-1.349h.92l.05.737h.029c.122-.229.304-.418.543-.569.284-.176.602-.265.95-.265.44 0 .806.142 1.097.427.36.349.543.87.543 1.562v2.824zm5.654-5.665a.599.599 0 00.184-.456.586.586 0 00-.184-.446.64.64 0 00-.455-.175.642.642 0 00-.457.176.586.586 0 00-.184.446c0 .181.059.331.18.451a.598.598 0 00.44.179.66.66 0 00.476-.175zm.068 5.665h-1.05V9.717h1.05v4.715zm7.587 0h1.027v-2.796c0-.705-.167-1.236-.503-1.591-.271-.285-.617-.427-1.04-.427-.36 0-.681.097-.958.291a1.838 1.838 0 00-.553.591h-.02c-.227-.588-.66-.882-1.301-.882-.633 0-1.112.272-1.436.814h-.03l-.048-.717h-.9c.025.486.037.935.037 1.349v3.366h1.029v-2.806a1.25 1.25 0 01.27-.793.848.848 0 01.7-.348c.284 0 .499.106.645.319.145.213.219.497.219.852v2.777h1.027v-2.864a1.183 1.183 0 01.258-.759.827.827 0 01.684-.324c.594 0 .893.435.893 1.306v2.642z" fill="#111"/><defs><filter id="filter0_d" x="0" y="0" width="139" height="44" filterUnits="userSpaceOnUse" color-interpolation-filters="sRGB"><feFlood flood-opacity="0" result="BackgroundImageFix"/><feColorMatrix in="SourceAlpha" values="0 0 0 0 0 0 0 0 0 0 0 0 0 0 0 0 0 0 127 0"/><feOffset dy="1"/><feGaussianBlur stdDeviation="1"/><feColorMatrix values="0 0 0 0 0 0 0 0 0 0 0 0 0 0 0 0 0 0 0.05 0"/><feBlend in2="BackgroundImageFix" result="effect1_dropShadow"/><feBlend in="SourceGraphic" in2="effect1_dropShadow" result="shape"/></filter></defs></svg>