<?xml version="1.0" encoding="UTF-8" standalone="no"?>
<svg
   xmlns:dc="http://purl.org/dc/elements/1.1/"
   xmlns:cc="http://creativecommons.org/ns#"
   xmlns:rdf="http://www.w3.org/1999/02/22-rdf-syntax-ns#"
   xmlns:svg="http://www.w3.org/2000/svg"
   xmlns="http://www.w3.org/2000/svg"
   xmlns:sodipodi="http://sodipodi.sourceforge.net/DTD/sodipodi-0.dtd"
   xmlns:inkscape="http://www.inkscape.org/namespaces/inkscape"
   inkscape:version="1.1-dev (f9311a1, 2019-12-25)"
   sodipodi:docname="web.svg"
   id="svg872"
   version="1.1"
   fill="none"
   viewBox="0 0 141 40"
   height="40"
   width="141">
  <metadata
     id="metadata876">
    <rdf:RDF>
      <cc:Work
         rdf:about="">
        <dc:format>image/svg+xml</dc:format>
        <dc:type
           rdf:resource="http://purl.org/dc/dcmitype/StillImage" />
      </cc:Work>
    </rdf:RDF>
  </metadata>
  <sodipodi:namedview
     inkscape:current-layer="g837"
     inkscape:window-maximized="1"
     inkscape:window-y="23"
     inkscape:window-x="0"
     inkscape:cy="21"
     inkscape:cx="70.5"
     inkscape:zoom="6.0482759"
     showgrid="false"
     id="namedview874"
     inkscape:window-height="1395"
     inkscape:window-width="2560"
     inkscape:pageshadow="2"
     inkscape:pageopacity="0"
     guidetolerance="10"
     gridtolerance="10"
     objecttolerance="10"
     borderopacity="1"
     inkscape:document-rotation="0"
     bordercolor="#666666"
     pagecolor="#ffffff" />
  <g
     transform="translate(-2,-1)"
     id="g837"
     filter="url(#filter0_d)">
    <path
       inkscape:connector-curvature="0"
       id="path833"
       fill="white"
       d="M 137.984,41 H 6.93918 C 4.21234,40.9939 2.00402,38.8778 2,36.267 V 5.726 C 2.00403,3.11633 4.21352,1.0022 6.93918,1 H 137.984 C 140.705,1 143,3.12 143,5.726 V 36.267 C 143,38.872 140.705,41 137.984,41 Z" />
    <path
       inkscape:connector-curvature="0"
       id="path835"
       stroke-opacity="0.1"
       stroke="black"
       d="M 137.984,40.5 H 6.94029 C 4.46839,40.4945 2.50378,38.5817 2.5,36.2666 V 5.7264 C 2.50378,3.41283 4.46901,1.50209 6.9394,1.5 H 137.984 c 2.477,0 4.516,1.92659 4.516,4.226 v 30.541 c 0,2.2994 -2.04,4.233 -4.516,4.233 z" />
  </g>
  <path
     inkscape:connector-curvature="0"
     id="path839"
     fill="#101010"
     d="m 49.174,18.508 -2.533,9.401 -2.448,-9.401 H 42.272 L 45.434,30 h 2.261 L 50.228,21.024 52.761,30 h 2.278 l 3.145,-11.492 h -1.921 l -2.431,9.401 -2.55,-9.401 z m 12.3499,10.2 c -1.309,0 -1.921,-0.799 -1.955,-2.04 h 4.845 c 0.085,-0.323 0.119,-0.884 0.119,-1.275 0,-1.666 -0.901,-3.315 -3.179,-3.315 -2.363,0 -3.519,1.819 -3.519,4.046 0,2.363 1.088,4.063 3.689,4.063 1.224,0 2.295,-0.527 2.839,-1.122 l -0.816,-1.122 c -0.595,0.527 -1.36,0.765 -2.023,0.765 z m -1.955,-3.298 c 0.068,-1.088 0.561,-1.938 1.785,-1.938 0.935,0 1.581,0.612 1.581,1.649 0,0.068 0,0.187 -0.017,0.289 z m 7.8419,-7.14 h -1.7 V 30 h 0.884 l 0.51,-0.697 c 0.425,0.442 1.156,0.884 2.363,0.884 2.193,0 3.315,-1.632 3.315,-4.08 0,-2.499 -1.054,-4.029 -3.315,-4.029 -1.088,0 -1.683,0.391 -2.057,0.816 z m 3.621,7.837 c 0,1.428 -0.408,2.499 -1.955,2.499 -0.799,0 -1.377,-0.425 -1.666,-0.816 v -3.4 c 0.255,-0.323 0.765,-0.731 1.666,-0.731 1.513,0 1.955,1.02 1.955,2.448 z m 7.631,-7.837 h -1.7 V 30 h 0.884 l 0.51,-0.697 c 0.425,0.442 1.156,0.884 2.363,0.884 2.193,0 3.315,-1.632 3.315,-4.08 0,-2.499 -1.054,-4.029 -3.315,-4.029 -1.088,0 -1.683,0.391 -2.057,0.816 z m 3.621,7.837 c 0,1.428 -0.408,2.499 -1.955,2.499 -0.799,0 -1.377,-0.425 -1.666,-0.816 v -3.4 c 0.255,-0.323 0.765,-0.731 1.666,-0.731 1.513,0 1.955,1.02 1.955,2.448 z M 86.877,23.506 V 22.248 H 85.245 V 30 h 1.7 v -4.964 c 0.323,-0.697 0.884,-1.19 1.683,-1.19 0.357,0 0.816,0.051 1.156,0.153 l 0.153,-1.819 c -0.272,-0.068 -0.595,-0.102 -0.918,-0.102 -1.122,0 -1.717,0.68 -2.125,1.428 z m 6.8588,-1.428 c -2.499,0 -3.604,1.717 -3.604,4.063 0,2.312 1.139,4.046 3.536,4.046 2.533,0 3.621,-1.717 3.621,-4.08 0,-2.312 -1.105,-4.029 -3.553,-4.029 z m -0.034,6.562 c -1.258,0 -1.819,-0.918 -1.819,-2.533 0,-1.564 0.544,-2.482 1.819,-2.482 1.292,0 1.853,0.918 1.853,2.516 0,1.547 -0.561,2.499 -1.853,2.499 z m 9.2622,-6.392 -1.819,5.916 -1.768,-5.916 H 97.5917 L 100.057,30 h 1.887 l 1.836,-5.576 1.853,5.576 h 1.887 l 2.448,-7.752 h -1.785 l -1.751,5.916 -1.819,-5.916 z m 13.318,0.952 c -0.493,-0.544 -1.36,-1.122 -2.839,-1.122 -2.227,0 -3.043,1.309 -3.043,2.431 0,1.071 0.663,1.853 1.972,2.176 l 1.343,0.34 c 0.629,0.153 0.986,0.425 0.986,0.884 0,0.646 -0.595,0.969 -1.445,0.969 -1.088,0 -1.683,-0.544 -2.108,-1.037 l -1.003,1.037 c 0.476,0.595 1.411,1.309 3.06,1.309 2.329,0 3.23,-1.156 3.23,-2.414 0,-1.122 -0.697,-1.887 -2.176,-2.227 L 112.95,25.24 c -0.612,-0.136 -0.833,-0.459 -0.833,-0.884 0,-0.527 0.374,-0.969 1.275,-0.969 0.833,0 1.479,0.357 1.904,0.833 z m 4.577,5.508 c -1.309,0 -1.921,-0.799 -1.955,-2.04 h 4.845 c 0.085,-0.323 0.119,-0.884 0.119,-1.275 0,-1.666 -0.901,-3.315 -3.179,-3.315 -2.363,0 -3.519,1.819 -3.519,4.046 0,2.363 1.088,4.063 3.689,4.063 1.224,0 2.295,-0.527 2.839,-1.122 l -0.816,-1.122 c -0.595,0.527 -1.36,0.765 -2.023,0.765 z m -1.955,-3.298 c 0.068,-1.088 0.561,-1.938 1.785,-1.938 0.935,0 1.581,0.612 1.581,1.649 0,0.068 0,0.187 -0.017,0.289 z m 7.774,-1.904 v -1.258 h -1.632 V 30 h 1.7 v -4.964 c 0.323,-0.697 0.884,-1.19 1.683,-1.19 0.357,0 0.816,0.051 1.156,0.153 l 0.153,-1.819 c -0.272,-0.068 -0.595,-0.102 -0.918,-0.102 -1.122,0 -1.717,0.68 -2.125,1.428 z" />
  <path
     inkscape:connector-curvature="0"
     id="path841"
     fill="black"
     d="m 41.243,12.208 c 0.288,0.522 0.792,0.882 1.548,0.882 1.098,0 1.845,-0.63 1.845,-2.25 V 6.916 h -0.549 v 3.933 c 0,1.296 -0.495,1.728 -1.296,1.728 -0.522,0 -0.846,-0.18 -1.116,-0.657 z m 6.0195,0.297 v -2.394 h 2.655 V 9.616 h -2.655 V 7.411 h 2.952 V 6.916 h -3.519 V 13 h 3.555 v -0.495 z m 4.2544,-5.589 v 0.495 h 1.818 V 13 h 0.567 V 7.411 h 1.809 V 6.916 Z m 9.1687,0 h -3.645 v 0.495 h 2.961 l -3.141,5.148 V 13 h 3.87 v -0.495 h -3.186 l 3.141,-5.139 z m 1.2444,0 v 0.495 h 1.818 V 13 h 0.567 V 7.411 h 1.809 V 6.916 Z M 70.0608,13 h 0.567 V 6.916 h -0.567 z m 5.7489,-0.747 -1.773,-5.337 h -0.792 L 72.3807,13 h 0.567 l 0.738,-5.418 1.8,5.418 h 0.621 l 1.809,-5.4 0.729,5.4 h 0.576 l -0.864,-6.084 h -0.756 z" />
  <rect
     id="rect843"
     fill="#C4C4C4"
     height="22"
     width="22"
     y="9"
     x="11" />
  <rect
     id="rect845"
     stroke-width="2"
     stroke="#101010"
     fill="#101010"
     height="20"
     width="22"
     y="10"
     x="11" />
  <line
     id="line847"
     stroke-width="2"
     stroke="white"
     y2="14"
     x2="34"
     y1="14"
     x1="10" />
  <circle
     id="circle849"
     fill="white"
     r="1"
     cy="11"
     cx="12" />
  <circle
     id="circle851"
     fill="white"
     r="1"
     cy="11"
     cx="15" />
  <circle
     id="circle853"
     fill="white"
     r="1"
     cy="11"
     cx="18" />
  <defs
     id="defs870">
    <filter
       color-interpolation-filters="sRGB"
       filterUnits="userSpaceOnUse"
       height="44"
       width="145"
       y="0"
       x="0"
       id="filter0_d">
      <feFlood
         id="feFlood855"
         result="BackgroundImageFix"
         flood-opacity="0" />
      <feColorMatrix
         id="feColorMatrix857"
         values="0 0 0 0 0 0 0 0 0 0 0 0 0 0 0 0 0 0 127 0"
         type="matrix"
         in="SourceAlpha" />
      <feOffset
         id="feOffset859"
         dy="1" />
      <feGaussianBlur
         id="feGaussianBlur861"
         stdDeviation="1" />
      <feColorMatrix
         id="feColorMatrix863"
         values="0 0 0 0 0 0 0 0 0 0 0 0 0 0 0 0 0 0 0.05 0"
         type="matrix" />
      <feBlend
         id="feBlend865"
         result="effect1_dropShadow"
         in2="BackgroundImageFix"
         mode="normal" />
      <feBlend
         id="feBlend867"
         result="shape"
         in2="effect1_dropShadow"
         in="SourceGraphic"
         mode="normal" />
    </filter>
  </defs>
</svg>
