<svg data-name="Badge/Google Play Market/45px" xmlns="http://www.w3.org/2000/svg" width="151" height="45"><rect width="151" height="45" rx="5"/><path data-name="Google Play" d="M85.699 38a4.514 4.514 0 01-4.188-2.866l1.823-.777a2.625 2.625 0 002.394 1.724c1.613 0 2.538-1.041 2.538-2.855v-.7h-.067a3.215 3.215 0 01-2.449 1.146h-.057a4.871 4.871 0 010-9.718 3.337 3.337 0 012.506 1.146h.078v-.8H90.2v8.644a5.29 5.29 0 01-1.318 3.874A4.326 4.326 0 0185.727 38zm.185-12.083a2.867 2.867 0 00-1.882.948 3 3 0 000 3.994 2.867 2.867 0 001.88.949h-.008.012a2.654 2.654 0 001.881-.916 2.765 2.765 0 00.657-2.03 2.788 2.788 0 00-.661-2.019 2.676 2.676 0 00-1.877-.927zm48.39 11.843h-2.181l2.125-4.808-3.724-8.652h2.236l2.483 6.189h.067l2.394-6.189H140l-5.726 13.46zm-119.95-2.214l12.754-12.331 3.411 3.3-4.875 2.815zm-.974-.307l.012-25.283 13.071 12.636L13.35 35.238zm86.109-1.521a4.635 4.635 0 01-3.3-1.4 4.829 4.829 0 01-1.349-3.451 4.638 4.638 0 011.207-3.415 4.443 4.443 0 013.257-1.437h.01a4.4 4.4 0 012.507.9 4.542 4.542 0 011.559 2.19l.235.514-6.361 2.681a2.413 2.413 0 002.21 1.475h.101a2.72 2.72 0 002.33-1.347l1.622 1.142a4.7 4.7 0 01-3.937 2.147h-.095zm.011-7.827h-.121a2.6 2.6 0 00-1.824.884 2.711 2.711 0 00-.659 1.948l4.25-1.8a1.835 1.835 0 00-1.646-1.032zm-23.946 7.826h-.008a4.855 4.855 0 01-.022-9.707h.091a4.611 4.611 0 013.3 1.393 4.867 4.867 0 011.38 3.46 4.812 4.812 0 01-4.741 4.854zm-.23-7.793a2.868 2.868 0 00-2.114.94 2.978 2.978 0 00-.491 3.277 2.9 2.9 0 002.6 1.676c.068 0 .135 0 .2-.007a2.738 2.738 0 001.95-.895 2.864 2.864 0 00.734-2.052 2.931 2.931 0 00-1.823-2.735 2.822 2.822 0 00-1.056-.203zm-10.2 7.793a4.854 4.854 0 01-.012-9.707h.08a4.611 4.611 0 013.3 1.393 4.867 4.867 0 011.38 3.46 4.81 4.81 0 01-4.745 4.854zm-.227-7.791a2.869 2.869 0 00-2.118.944 2.978 2.978 0 00-.483 3.28 2.9 2.9 0 002.6 1.669c.071 0 .142 0 .213-.008h-.011a2.741 2.741 0 001.95-.895 2.864 2.864 0 00.734-2.052 2.929 2.929 0 00-1.836-2.736 2.82 2.82 0 00-1.045-.202zm-11.882 7.753c-.1 0-.2 0-.305-.007s-.193.006-.29.006a7.4 7.4 0 01-6.352-3.689 7.679 7.679 0 010-7.718 7.4 7.4 0 016.352-3.689c.1 0 .194 0 .29.006h.062a7 7 0 015 2.136l-1.42 1.45A5.067 5.067 0 0052.75 20.7h-.083a5.483 5.483 0 000 10.963h.2a4.921 4.921 0 003.527-1.512 4.361 4.361 0 001.119-2.592H52.68v-2.052l6.788-.057a6.816 6.816 0 01.112 1.29 6.907 6.907 0 01-1.745 4.82 6.672 6.672 0 01-4.85 2.119zm72.35-.009a3.19 3.19 0 01-2.145-.832 3.343 3.343 0 01-1.084-2.318 2.863 2.863 0 011.262-2.379 4.822 4.822 0 012.763-.829h.021a4.549 4.549 0 012.159.548v-.149a2.079 2.079 0 00-.741-1.4 1.978 1.978 0 00-1.5-.441c-.053 0-.108-.007-.161-.007a1.973 1.973 0 00-1.741 1.057l-1.856-.788a3.887 3.887 0 013.491-2.189c.077 0 .156 0 .233.007l.056.034c2.535 0 4.238 1.588 4.238 3.952v5.493h-2.013V32.29h-.067a2.917 2.917 0 01-2.473 1.378c-.07 0-.141 0-.21-.008s-.152.01-.232.01zm1.148-4.624h-.093c-1.081 0-2.237.4-2.237 1.518 0 .882 1 1.21 1.633 1.21l.056.034a2.561 2.561 0 002.449-2.284 3.663 3.663 0 00-1.808-.478zm-5.518 4.386h-2.092V19.157h2.092v14.274zm-10.724 0h-2.091V19.157h5.01c.1-.008.208-.011.312-.011a4.357 4.357 0 013.714 2.13 4.506 4.506 0 010 4.625 4.357 4.357 0 01-3.714 2.13c-.1 0-.208 0-.312-.011h-2.919v5.412zm-.011-12.288v4.864h2.92l.045.034a2.45 2.45 0 000-4.9zM93.79 33.432h-2.091V19.157h2.091v14.274zm-62.494-7.385l-3.573-3.454 3.911-3.78 4.755 2.743a.9.9 0 010 1.553l-5.09 2.938zm-4.218-4.077L14.127 9.45l11.467 5.876 5.232 3.02-3.747 3.623zm22.062-7.8h-.118a3.516 3.516 0 01-3.23-2.227 3.647 3.647 0 01.759-3.9 3.34 3.34 0 012.399-1.037h.089a3.386 3.386 0 011.363.285 2.773 2.773 0 011.051.765l-.593.6a2.213 2.213 0 00-1.71-.807h-.136a2.579 2.579 0 00-1.861.8 2.693 2.693 0 00-.732 1.937 2.69 2.69 0 001.587 2.514 2.6 2.6 0 002.883-.536 2.187 2.187 0 00.559-1.389h-2.428v-.823h3.254a2.994 2.994 0 01.045.514 3.145 3.145 0 01-.839 2.284 3.237 3.237 0 01-2.342 1.019zm30.011 0a3.434 3.434 0 01-2.461-1.042 3.761 3.761 0 010-5.082 3.418 3.418 0 014.921 0 3.744 3.744 0 010 5.082 3.431 3.431 0 01-2.461 1.036zm0-6.3a2.54 2.54 0 00-1.823.769 2.959 2.959 0 000 3.929 2.546 2.546 0 003.646 0 2.959 2.959 0 000-3.929 2.54 2.54 0 00-1.824-.78zm5.535 6.16h-.872V7.166h1.051l3.266 5.334V7.166h.861v6.851h-.895l-3.41-5.582v5.583zm-13.677 0h-.859V8.012h-1.88v-.846h4.607v.845h-1.868v6.006zm-3.825 0h-.861V7.166h.861v6.851zm-6.072 0h-.862V8.012h-1.877v-.846h4.663v.845h-1.924v6.006zm-3.668 0H53.53V7.166h3.914v.845h-3.02v2.17h2.751V11h-2.751v2.173h3.02v.844z" fill="#f5f9fc"/></svg>