<svg xmlns="http://www.w3.org/2000/svg" width="151" height="45"><g data-name="Group 2452"><g data-name="Badge/Google Play Market/45px"><rect width="151" height="45" rx="5"/><path data-name="Path 1720" d="M53.646 22.824l-2.713 10.069-2.622-10.069h-2.058l3.387 12.309h2.422l2.713-9.614 2.713 9.614h2.44l3.369-12.309h-2.058l-2.6 10.069-2.735-10.069zm13.228 10.925a1.959 1.959 0 01-2.093-2.185h5.189a6.447 6.447 0 00.127-1.366 3.248 3.248 0 00-3.4-3.551c-2.531 0-3.769 1.948-3.769 4.334 0 2.531 1.165 4.352 3.951 4.352a4.264 4.264 0 003.041-1.2l-.874-1.2a3.329 3.329 0 01-2.172.816zm-2.093-3.532c.073-1.165.6-2.076 1.912-2.076a1.617 1.617 0 011.688 1.766 1.986 1.986 0 01-.018.31zm8.4-7.648h-1.823v12.564h.947l.546-.747a3.352 3.352 0 002.531.947c2.349 0 3.551-1.748 3.551-4.37 0-2.677-1.129-4.315-3.551-4.315a2.717 2.717 0 00-2.2.874zm3.878 8.394c0 1.53-.437 2.677-2.094 2.677a2.225 2.225 0 01-1.784-.874v-3.642a2.17 2.17 0 011.784-.783c1.616 0 2.092 1.093 2.092 2.622zm8.172-8.394H83.41v12.564h.947l.546-.747a3.352 3.352 0 002.531.947c2.349 0 3.551-1.748 3.551-4.37 0-2.677-1.129-4.315-3.551-4.315a2.717 2.717 0 00-2.2.874zm3.878 8.394c0 1.53-.437 2.677-2.094 2.677a2.225 2.225 0 01-1.784-.874v-3.642a2.17 2.17 0 011.784-.783c1.621 0 2.094 1.093 2.094 2.622zm4.92-2.786V26.83h-1.748v8.3h1.821v-5.314a1.967 1.967 0 011.8-1.275 4.718 4.718 0 011.238.164l.164-1.948a4.17 4.17 0 00-.983-.109 2.5 2.5 0 00-2.276 1.53zm7.346-1.53c-2.677 0-3.86 1.839-3.86 4.352 0 2.476 1.22 4.334 3.787 4.334 2.713 0 3.878-1.839 3.878-4.37.001-2.476-1.183-4.315-3.805-4.315zm-.036 7.028c-1.347 0-1.948-.983-1.948-2.713 0-1.675.583-2.658 1.948-2.658 1.384 0 1.985.983 1.985 2.695 0 1.658-.601 2.677-1.985 2.677zm9.921-6.846l-1.948 6.337-1.894-6.337h-1.912l2.641 8.3h2.021l1.967-5.972 1.985 5.972h2.021l2.622-8.3h-1.912l-1.875 6.337-1.948-6.337zm14.265 1.02a3.9 3.9 0 00-3.041-1.2c-2.385 0-3.259 1.4-3.259 2.6a2.376 2.376 0 002.112 2.331l1.438.364c.674.164 1.056.455 1.056.947 0 .692-.637 1.038-1.548 1.038a2.794 2.794 0 01-2.258-1.111l-1.074 1.111a4 4 0 003.278 1.4c2.495 0 3.46-1.238 3.46-2.586 0-1.2-.747-2.021-2.331-2.385l-1.4-.328c-.656-.146-.892-.492-.892-.947 0-.564.4-1.038 1.366-1.038a2.682 2.682 0 012.039.892zm4.9 5.9a1.959 1.959 0 01-2.094-2.185h5.189a6.447 6.447 0 00.127-1.366 3.248 3.248 0 00-3.4-3.551c-2.531 0-3.769 1.948-3.769 4.334 0 2.531 1.165 4.352 3.951 4.352a4.264 4.264 0 003.041-1.2l-.874-1.2a3.329 3.329 0 01-2.169.816zm-2.094-3.532c.073-1.165.6-2.076 1.912-2.076a1.617 1.617 0 011.693 1.766 1.984 1.984 0 01-.018.31zm8.327-2.039V26.83h-1.747v8.3h1.821v-5.314a1.967 1.967 0 011.8-1.275 4.718 4.718 0 011.238.164l.164-1.948a4.17 4.17 0 00-.983-.109 2.5 2.5 0 00-2.276 1.53z" fill="#fff"/><path data-name="Path 1721" d="M48.045 17.02c1.359 0 2.342-.665 2.342-2.5v-4.113h-.607v4.145c0 1.407-.656 1.918-1.735 1.918-1.1 0-1.735-.521-1.735-1.918v-4.145h-.607v4.116c-.002 1.832.962 2.497 2.342 2.497zm8.345-5.755a2.17 2.17 0 00-1.967-.954 1.842 1.842 0 00-2.044 1.851c0 .877.578 1.369 1.475 1.639l.9.26c.636.183 1.118.472 1.118 1.128 0 .762-.5 1.282-1.533 1.282a1.544 1.544 0 01-1.687-.993l-.5.289a2.064 2.064 0 002.188 1.253c1.4 0 2.159-.79 2.159-1.86 0-.964-.675-1.4-1.552-1.658l-.887-.26c-.684-.2-1.051-.472-1.051-1.1a1.255 1.255 0 011.417-1.282 1.612 1.612 0 011.485.733zm2.6 5.128V13.83h2.844v-.53h-2.846v-2.362h3.157v-.53h-3.764v6.517h3.808v-.53zm7.788.53h.607v-6.516h-.607zm7.093-.974l-3.579-5.542h-.656v6.517h.609v-5.553l3.576 5.553h.656v-6.517h-.6zm7.453.974v-2.631l2.246-3.885h-.694l-1.86 3.3-1.86-3.3h-.684l2.246 3.885v2.632zm3.853-3.249c0-1.658.482-2.815 1.967-2.815 1.513 0 1.976 1.157 1.976 2.815s-.453 2.8-2 2.8c-1.483-.003-1.946-1.131-1.946-2.799zm4.56 0c0-1.957-.723-3.364-2.593-3.364s-2.599 1.408-2.599 3.365.713 3.345 2.574 3.345c1.882 0 2.615-1.388 2.615-3.345zm4.259 3.345c1.359 0 2.342-.665 2.342-2.5v-4.112h-.607v4.145c0 1.407-.656 1.918-1.735 1.918-1.1 0-1.735-.521-1.735-1.918v-4.145h-.607v4.116c-.004 1.832.96 2.497 2.339 2.497zm4.549-.1h.6l.01-2.969h1.311l1.9 2.969h.713l-1.964-3.012a1.7 1.7 0 001.764-1.735c0-1.1-.7-1.764-2.188-1.764h-2.146zm3.711-4.752c0 .781-.424 1.253-1.591 1.253h-1.52v-2.482h1.513c1.17 0 1.595.462 1.595 1.233z" fill="#fff"/></g><g data-name="Group 2451" transform="translate(-193.6 -36)"><path data-name="Rectangle 2285" fill="#c4c4c4" d="M207 47h23v23h-23z"/><path data-name="Path 1722" d="M207 48h23v21h-23z" fill="#fff" stroke="#fff" stroke-width="2"/><path data-name="Line 4" fill="none" stroke="#000" stroke-width="2" d="M206 52h25"/><circle data-name="Ellipse 16" cx="1" cy="1" r="1" transform="translate(207 48)"/><circle data-name="Ellipse 17" cx="1" cy="1" r="1" transform="translate(210 48)"/><circle data-name="Ellipse 18" cx="1" cy="1" r="1" transform="translate(213 48)"/></g></g></svg>