<svg id="Badge_Google_Play_Market_45px" data-name="Badge/Google Play Market/45px" xmlns="http://www.w3.org/2000/svg" width="151" height="45" viewBox="0 0 151 45">
  <rect id="Background" width="151" height="45" rx="5"/>
  <path id="Google_Play" data-name="Google Play" d="M72.349,31h0a4.514,4.514,0,0,1-4.188-2.866l1.823-.777a2.625,2.625,0,0,0,2.394,1.724c1.613,0,2.538-1.041,2.538-2.855v-.7h-.067A3.215,3.215,0,0,1,72.4,26.672h-.057a4.871,4.871,0,0,1,0-9.718A3.337,3.337,0,0,1,74.849,18.1h.078v-.8H76.85v8.644a5.29,5.29,0,0,1-1.318,3.874A4.326,4.326,0,0,1,72.377,31Zm.185-12.083h0a2.867,2.867,0,0,0-1.882.948,3,3,0,0,0,0,3.994,2.867,2.867,0,0,0,1.88.949l-.008,0,.012,0a2.654,2.654,0,0,0,1.881-.916,2.765,2.765,0,0,0,.657-2.03,2.788,2.788,0,0,0-.661-2.019,2.676,2.676,0,0,0-1.877-.927Zm48.39,11.843h-2.181l2.125-4.808L117.144,17.3h2.236l2.483,6.189h.067l2.394-6.189h2.326L120.924,30.76ZM.974,28.546v0L13.728,16.215l3.411,3.3-4.875,2.815ZM0,28.239v0L.012,2.956,13.083,15.592,0,28.238Zm86.109-1.521a4.635,4.635,0,0,1-3.3-1.4,4.829,4.829,0,0,1-1.349-3.451,4.638,4.638,0,0,1,1.207-3.415,4.443,4.443,0,0,1,3.257-1.437h.01a4.4,4.4,0,0,1,2.507.9A4.542,4.542,0,0,1,90,20.105l.235.514L83.874,23.3a2.413,2.413,0,0,0,2.21,1.475l.093,0h.008a2.72,2.72,0,0,0,2.33-1.347l1.622,1.142A4.7,4.7,0,0,1,86.2,26.717h-.095Zm.011-7.827c-.04,0-.081,0-.121,0a2.6,2.6,0,0,0-1.824.884,2.711,2.711,0,0,0-.659,1.948l4.25-1.8A1.835,1.835,0,0,0,86.12,18.891ZM62.174,26.717h-.008a4.855,4.855,0,0,1-.022-9.707h.091a4.611,4.611,0,0,1,3.3,1.393,4.867,4.867,0,0,1,1.38,3.46A4.812,4.812,0,0,1,62.174,26.717Zm-.23-7.793a2.868,2.868,0,0,0-2.114.94,2.978,2.978,0,0,0-.491,3.277,2.9,2.9,0,0,0,2.6,1.676c.068,0,.135,0,.2-.007a2.738,2.738,0,0,0,1.95-.895,2.864,2.864,0,0,0,.734-2.052A2.931,2.931,0,0,0,63,19.128,2.822,2.822,0,0,0,61.944,18.925Zm-10.2,7.793h0a4.854,4.854,0,0,1-.012-9.707h.08a4.611,4.611,0,0,1,3.3,1.393,4.867,4.867,0,0,1,1.38,3.46A4.81,4.81,0,0,1,51.747,26.717Zm-.227-7.791a2.869,2.869,0,0,0-2.118.944,2.978,2.978,0,0,0-.483,3.28,2.9,2.9,0,0,0,2.6,1.669c.071,0,.142,0,.213-.008h-.011a2.741,2.741,0,0,0,1.95-.895,2.864,2.864,0,0,0,.734-2.052,2.929,2.929,0,0,0-1.836-2.736A2.82,2.82,0,0,0,51.521,18.926ZM39.635,26.679c-.1,0-.2,0-.305-.007s-.193.006-.29.006a7.4,7.4,0,0,1-6.352-3.689,7.679,7.679,0,0,1,0-7.718,7.4,7.4,0,0,1,6.352-3.689c.1,0,.194,0,.29.006h.062a7,7,0,0,1,5,2.136l-1.42,1.45A5.067,5.067,0,0,0,39.4,13.7h-.083a5.483,5.483,0,0,0,0,10.963c.065,0,.131,0,.2,0a4.921,4.921,0,0,0,3.527-1.512,4.361,4.361,0,0,0,1.119-2.592H39.33V18.507l6.788-.057a6.816,6.816,0,0,1,.112,1.29,6.907,6.907,0,0,1-1.745,4.82A6.672,6.672,0,0,1,39.635,26.679Zm72.35-.009a3.19,3.19,0,0,1-2.145-.832,3.343,3.343,0,0,1-1.084-2.318,2.863,2.863,0,0,1,1.262-2.379,4.822,4.822,0,0,1,2.763-.829h.021a4.549,4.549,0,0,1,2.159.548v-.149a2.079,2.079,0,0,0-.741-1.4,1.978,1.978,0,0,0-1.5-.441c-.053,0-.108-.007-.161-.007a1.973,1.973,0,0,0-1.741,1.057l-1.856-.788a3.887,3.887,0,0,1,3.491-2.189c.077,0,.156,0,.233.007l.056.034c2.535,0,4.238,1.588,4.238,3.952v5.493h-2.013V25.29h-.067a2.917,2.917,0,0,1-2.473,1.378c-.07,0-.141,0-.21-.008S112.065,26.67,111.985,26.67Zm1.148-4.624h-.093c-1.081,0-2.237.4-2.237,1.518,0,.882,1,1.21,1.633,1.21l.056.034a2.561,2.561,0,0,0,2.449-2.284A3.663,3.663,0,0,0,113.133,22.046Zm-5.518,4.386h-2.092V12.157h2.092V26.431Zm-10.724,0H94.8V12.157h5.01c.1-.008.208-.011.312-.011a4.357,4.357,0,0,1,3.714,2.13,4.506,4.506,0,0,1,0,4.625,4.357,4.357,0,0,1-3.714,2.13c-.1,0-.208,0-.312-.011H96.891v5.412ZM96.88,14.144v4.864H99.8l.045.034a2.45,2.45,0,0,0,0-4.9ZM80.44,26.432H78.349V12.157H80.44V26.431ZM17.946,19.047h0l-3.573-3.454,3.911-3.78,4.755,2.743a.9.9,0,0,1,0,1.553l-5.09,2.938ZM13.728,14.97h0L.777,2.45,12.244,8.326l5.232,3.02-3.747,3.623Zm22.062-7.8-.118,0a3.516,3.516,0,0,1-3.23-2.227,3.647,3.647,0,0,1,.759-3.9A3.34,3.34,0,0,1,35.6.006h.089a3.386,3.386,0,0,1,1.363.285,2.773,2.773,0,0,1,1.051.765l-.593.6A2.213,2.213,0,0,0,35.8.849c-.041,0-.082,0-.123,0h-.013a2.579,2.579,0,0,0-1.861.8,2.693,2.693,0,0,0-.732,1.937A2.69,2.69,0,0,0,34.658,6.1a2.6,2.6,0,0,0,2.883-.536A2.187,2.187,0,0,0,38.1,4.175H35.672V3.352h3.254a2.994,2.994,0,0,1,.045.514,3.145,3.145,0,0,1-.839,2.284A3.237,3.237,0,0,1,35.79,7.169Zm30.011,0A3.434,3.434,0,0,1,63.34,6.128a3.761,3.761,0,0,1,0-5.082,3.418,3.418,0,0,1,4.921,0,3.744,3.744,0,0,1,0,5.082A3.431,3.431,0,0,1,65.8,7.164Zm0-6.3a2.54,2.54,0,0,0-1.823.769,2.959,2.959,0,0,0,0,3.929,2.546,2.546,0,0,0,3.646,0,2.959,2.959,0,0,0,0-3.929A2.54,2.54,0,0,0,65.8.859Zm5.535,6.16h-.872V.166h1.051L74.781,5.5V.166h.861V7.017h-.895L71.337,1.435V7.018Zm-13.677,0H56.8V1.012H54.92V.166h4.607v.845H57.659V7.017Zm-3.825,0h-.861V.166h.861V7.017Zm-6.072,0H46.9V1.012H45.023V.166h4.663v.845H47.762V7.017Zm-3.668,0H40.18V.166h3.914v.845h-3.02v2.17h2.751V4H41.074V6.173h3.02v.844Z" transform="translate(13.35 7)" fill="#f5f9fc"/>
</svg>
