<svg data-name="Badge/App Store/45px" xmlns="http://www.w3.org/2000/svg" width="135" height="45"><rect width="135" height="45" rx="5"/><path data-name="App Store" d="M66.209 37h-2.1V23.053h2.037V24.8h.039a3.634 3.634 0 013.147-1.855h.118a3.9 3.9 0 013.128 1.455 6.112 6.112 0 011.184 3.894 6.144 6.144 0 01-1.174 3.9 3.848 3.848 0 01-3.1 1.453h-.182a3.464 3.464 0 01-3.044-1.838h-.049V37zm2.68-12.222c-1.608 0-2.689 1.413-2.689 3.516s1.081 3.525 2.689 3.525c1.646 0 2.71-1.384 2.71-3.525a4.149 4.149 0 00-.737-2.554 2.4 2.4 0 00-1.973-.962zM54.924 37h-2.105V23.053h2.038V24.8h.039a3.634 3.634 0 013.147-1.855h.118a3.9 3.9 0 013.133 1.455 6.112 6.112 0 011.183 3.893 6.143 6.143 0 01-1.174 3.9 3.848 3.848 0 01-3.1 1.453h-.182a3.464 3.464 0 01-3.043-1.838h-.049V37zm2.68-12.222c-1.609 0-2.689 1.413-2.689 3.516s1.081 3.525 2.689 3.525c1.646 0 2.71-1.384 2.71-3.525a4.149 4.149 0 00-.741-2.554 2.4 2.4 0 00-1.968-.962zM16.409 35.55c-1.811 0-3.224-2.014-4.256-3.485a17.531 17.531 0 01-2.664-6.639 10.863 10.863 0 01.938-7.248 6.744 6.744 0 015.674-3.451h.079a7.616 7.616 0 012.782.715 5.212 5.212 0 001.722.5 5.348 5.348 0 001.654-.488 8.894 8.894 0 013.184-.806 4.268 4.268 0 01.443.023 6.46 6.46 0 015.058 2.729 6.227 6.227 0 00-2.99 5.253 6.04 6.04 0 003.7 5.566 13.814 13.814 0 01-1.926 3.912c-1.227 1.83-2.391 3.347-4.212 3.377h-.1A4.8 4.8 0 0123.462 35a5.607 5.607 0 00-2.419-.571 5.946 5.946 0 00-2.548.591 5.344 5.344 0 01-1.992.527zm68.016-1.777a6.062 6.062 0 01-3.8-1.147 4.1 4.1 0 01-1.562-3.1h2.155c.154 1.413 1.5 2.362 3.362 2.362 1.767 0 3.05-.934 3.05-2.221 0-1.115-.775-1.785-2.592-2.242l-1.823-.448c-2.579-.637-3.781-1.869-3.781-3.875 0-2.463 2.1-4.183 5.117-4.183a5.6 5.6 0 013.627 1.162 3.952 3.952 0 011.45 3.021h-2.123c-.126-1.419-1.268-2.3-2.983-2.3a3.4 3.4 0 00-2.063.6 1.89 1.89 0 00-.792 1.554c0 1.013.74 1.613 2.553 2.072l1.549.389c2.863.692 4.084 1.884 4.084 3.984a3.951 3.951 0 01-1.464 3.195 6.256 6.256 0 01-3.964 1.176zm35.042-.109c-2.982 0-4.834-2.038-4.834-5.32s1.862-5.419 4.745-5.419a4.373 4.373 0 013.374 1.393 5.555 5.555 0 011.246 3.777v.736h-7.236v.131a2.769 2.769 0 00.724 2.12 2.657 2.657 0 001.937.85h.1c.072.007.145.01.218.01a2.31 2.31 0 002.15-1.485h2c-.29 1.888-2.106 3.206-4.423 3.206zm-.106-9a2.55 2.55 0 00-1.831.774 2.7 2.7 0 00-.763 1.885h5.126a2.561 2.561 0 00-.689-1.892 2.45 2.45 0 00-1.772-.768h-.07zm-17.025 9a4.634 4.634 0 01-3.549-1.445 5.72 5.72 0 01-1.314-3.925 5.709 5.709 0 011.32-3.921 5.062 5.062 0 017.089 0 5.714 5.714 0 011.317 3.921 5.72 5.72 0 01-1.313 3.925 4.635 4.635 0 01-3.549 1.444zm0-8.967c-1.7 0-2.718 1.345-2.718 3.6a4.379 4.379 0 00.72 2.649 2.584 2.584 0 004 0 4.377 4.377 0 00.72-2.649c.004-2.255-1.018-3.597-2.721-3.597zm-7.066 8.9h-.1c-2.076 0-2.885-.793-2.885-2.83v-6.01h-1.49v-1.7h1.49v-2.483H94.4v2.479h1.949v1.7h-1.952v5.777c0 .9.4 1.316 1.247 1.316a6.383 6.383 0 00.692-.049v1.693a5.668 5.668 0 01-1.064.104zm-54-.061H39l5.077-14.374h2.359l5.076 14.37h-2.309l-1.286-3.885h-5.355l-1.288 3.885zm3.938-11.986l-2.1 6.305h4.254l-2.1-6.305zm65.833 11.983h-2.105v-10.48h2.007v1.784h.05a2.452 2.452 0 012.372-1.9h.106a3.143 3.143 0 01.709.081v2.012a2.877 2.877 0 00-.858-.131h-.175a2.1 2.1 0 00-1.552.691 2.2 2.2 0 00-.553 1.722v6.214zm5.621-18.173a2.048 2.048 0 01-.224-.012h-.06a2.3 2.3 0 01-1.727-.789 2.393 2.393 0 01-.568-1.9 2.44 2.44 0 01.567-1.911 2.333 2.333 0 011.763-.813h.021c1.425 0 2.275.982 2.275 2.627v.358h-3.6v.058a1.4 1.4 0 00.355 1.054 1.337 1.337 0 00.987.439h.016a1.2 1.2 0 00.146.009 1.22 1.22 0 001.067-.641h.968a2.088 2.088 0 01-1.986 1.521zm-.25-4.55a1.279 1.279 0 00-.922.391 1.355 1.355 0 00-.382.959h2.575a1.275 1.275 0 00-.335-.959 1.22 1.22 0 00-.892-.391h-.045zM92.14 15.348a2.374 2.374 0 01-1.278-.372 2.472 2.472 0 01-1.13-2.337 2.473 2.473 0 011.13-2.339 2.375 2.375 0 012.548 0 2.474 2.474 0 011.13 2.334 2.472 2.472 0 01-1.13 2.337 2.374 2.374 0 01-1.27.377zm0-4.5c-.869 0-1.367.653-1.367 1.791s.5 1.795 1.367 1.795 1.368-.654 1.368-1.795-.497-1.791-1.367-1.791zm-20.4 4.5a2.377 2.377 0 01-1.275-.372 2.472 2.472 0 01-1.13-2.337 2.473 2.473 0 011.134-2.339 2.37 2.37 0 012.547 0 2.473 2.473 0 011.131 2.334 2.473 2.473 0 01-1.13 2.337 2.377 2.377 0 01-1.274.377zm0-4.5c-.868 0-1.366.653-1.366 1.791s.5 1.795 1.366 1.795 1.368-.654 1.368-1.795-.495-1.791-1.364-1.791zm-22.126 4.5a2.377 2.377 0 01-1.275-.372 2.473 2.473 0 01-1.129-2.337 2.473 2.473 0 011.134-2.339 2.374 2.374 0 012.547 0 2.473 2.473 0 011.131 2.334 2.472 2.472 0 01-1.13 2.337 2.377 2.377 0 01-1.274.377zm0-4.5c-.869 0-1.367.653-1.367 1.791s.5 1.795 1.367 1.795 1.368-.654 1.368-1.795-.493-1.791-1.362-1.791zm27.132 4.493a1.519 1.519 0 01-1.028-.4 1.6 1.6 0 01-.511-1.166c0-.925.674-1.478 1.9-1.556l1.381-.081v-.45c0-.555-.371-.861-1.044-.861-.564 0-.951.211-1.062.58h-.975c.1-.893.921-1.47 2.083-1.47 1.271 0 2 .638 2 1.751v3.559h-.969v-.733h-.079a1.7 1.7 0 01-1.451.82h-.081a1.507 1.507 0 01-.164.007zm1.739-2.449l-1.245.082c-.7.047-1.021.286-1.021.752s.371.742.945.742a1.176 1.176 0 00.9-.284 1.239 1.239 0 00.424-.856zm4.508 2.442h-.067a1.893 1.893 0 01-1.545-.734 3.154 3.154 0 01-.572-1.966c0-1.634.831-2.69 2.117-2.69h.078a1.67 1.67 0 011.486.916h.072V8h1.006v7.247h-.964v-.824h-.08a1.766 1.766 0 01-1.531.911zm.219-4.462c-.84 0-1.363.677-1.363 1.767 0 1.109.509 1.77 1.363 1.77s1.373-.677 1.373-1.766-.523-1.771-1.374-1.771zm23.258 4.4c-1.112 0-1.565-.408-1.565-1.408v-2.939h-.809v-.867h.809V8.737h1.007v1.321h1.1v.867h-1.1v2.68c0 .543.222.785.721.785a3.421 3.421 0 00.383-.023v.857a3.3 3.3 0 01-.547.052zm2.929-.028h-1.007V8h1v2.872h.079a1.572 1.572 0 011.427-.939c.043 0 .086 0 .128.005h.092a1.667 1.667 0 011.233.552 1.736 1.736 0 01.431 1.394v3.362h-1.01v-3.111c0-.821-.377-1.255-1.091-1.255h-.1a1.171 1.171 0 00-.846.359 1.233 1.233 0 00-.341.967v3.041zm-12.5 0h-1.004v-5.209h.967v.828h.076a1.524 1.524 0 011.4-.934c.041 0 .083 0 .124.005s.083 0 .125 0a1.645 1.645 0 011.214.54 1.71 1.71 0 01.427 1.4v3.372h-1.009v-3.115c0-.844-.36-1.255-1.1-1.255h-.057a1.163 1.163 0 00-.852.376 1.214 1.214 0 00-.311.947v3.048zm-34.9 0h-1.001v-5.209h.964v.828h.076a1.524 1.524 0 011.4-.934c.041 0 .083 0 .124.005s.083 0 .125 0a1.645 1.645 0 011.214.54 1.71 1.71 0 01.427 1.4v3.372h-1.006v-3.115c0-.844-.36-1.255-1.1-1.255h-.054a1.163 1.163 0 00-.852.376 1.214 1.214 0 00-.311.947v3.048zm-6.816 0h-1.028l-1.406-5.209h1.021l.913 3.977h.079l1.048-3.977h.966l1.048 3.977h.08l.909-3.977h1.006l-1.4 5.211h-1.047l-1.054-3.838h-.08l-1.049 3.839zm12.75 0h-1.001V8h1.006v7.246zm-25.09 0h-2.436V8.34h2.441c.071-.005.144-.008.215-.008a2.972 2.972 0 012.17.955 3.089 3.089 0 01.795 2.485c0 2.208-1.159 3.475-3.18 3.475zm-1.381-5.927v4.953h1.399a2.113 2.113 0 001.567-.7 2.193 2.193 0 00.534-1.784 2.2 2.2 0 00-.544-1.772 2.114 2.114 0 00-1.566-.7h-.118zm-20.946 5.035h-.054a5.813 5.813 0 011.451-4.252A6.275 6.275 0 0125.982 8a6.12 6.12 0 01-1.414 4.416 5.183 5.183 0 01-4.052 1.936z" fill="#f5f9fc"/></svg>